<svg width="24" height="24" viewBox="0 0 24 24" fill="none" xmlns="http://www.w3.org/2000/svg">
<path d="M12 6C11.45 6 10.9793 5.804 10.588 5.412C10.196 5.02067 9.99997 4.55 9.99997 4C9.99997 3.45 10.196 2.979 10.588 2.587C10.9793 2.19567 11.45 2 12 2C12.55 2 13.021 2.19567 13.413 2.587C13.8043 2.979 14 3.45 14 4C14 4.55 13.8043 5.02067 13.413 5.412C13.021 5.804 12.55 6 12 6ZM20 8.25C19.2 8.43333 18.375 8.58733 17.525 8.712C16.675 8.83733 15.8333 8.93333 15 9V21.025C15 21.3083 14.9043 21.5417 14.713 21.725C14.521 21.9083 14.2833 22 14 22C13.7166 22 13.4793 21.904 13.288 21.712C13.096 21.5207 13 21.2833 13 21V16H11V21.025C11 21.3083 10.9043 21.5417 10.713 21.725C10.521 21.9083 10.2833 22 9.99997 22C9.71663 22 9.4793 21.904 9.28797 21.712C9.09597 21.5207 8.99997 21.2833 8.99997 21V9C8.16663 8.93333 7.32497 8.83733 6.47497 8.712C5.62497 8.58733 4.79997 8.43333 3.99997 8.25C3.71663 8.18333 3.49997 8.029 3.34997 7.787C3.19997 7.54567 3.16663 7.28333 3.24997 7C3.31663 6.71667 3.47097 6.504 3.71297 6.362C3.9543 6.22067 4.21663 6.18333 4.49997 6.25C5.69997 6.51667 6.93763 6.70833 8.21297 6.825C9.48763 6.94167 10.75 7 12 7C13.25 7 14.5123 6.94167 15.787 6.825C17.0623 6.70833 18.3 6.51667 19.5 6.25C19.7833 6.18333 20.0416 6.22067 20.275 6.362C20.5083 6.504 20.6666 6.71667 20.75 7C20.8166 7.28333 20.7793 7.54567 20.638 7.787C20.496 8.029 20.2833 8.18333 20 8.25Z" fill="#757575"/>
</svg>
