<svg width="56" height="56" viewBox="0 0 56 56" fill="none" xmlns="http://www.w3.org/2000/svg">
<rect width="56" height="56" rx="28" fill="#015A5E"/>
<path d="M25.0312 30.9688C25.8646 31.776 26.8542 32.1797 28 32.1797C29.1458 32.1797 30.1224 31.776 30.9297 30.9688C31.763 30.1354 32.1797 29.1458 32.1797 28C32.1797 26.8542 31.763 25.8776 30.9297 25.0703C30.1224 24.237 29.1458 23.8203 28 23.8203C26.8542 23.8203 25.8646 24.237 25.0312 25.0703C24.224 25.8776 23.8203 26.8542 23.8203 28C23.8203 29.1458 24.224 30.1354 25.0312 30.9688ZM25.5 19.6797H30.5L32.0234 21.3203H34.6797C35.1224 21.3203 35.5 21.4896 35.8125 21.8281C36.151 22.1667 36.3203 22.5573 36.3203 23V33C36.3203 33.4427 36.151 33.8333 35.8125 34.1719C35.5 34.5104 35.1224 34.6797 34.6797 34.6797H21.3203C20.8776 34.6797 20.487 34.5104 20.1484 34.1719C19.8359 33.8333 19.6797 33.4427 19.6797 33V23C19.6797 22.5573 19.8359 22.1667 20.1484 21.8281C20.487 21.4896 20.8776 21.3203 21.3203 21.3203H23.9766L25.5 19.6797ZM26.125 29.875C25.6042 29.3542 25.3438 28.7292 25.3438 28C25.3438 27.2708 25.6042 26.6458 26.125 26.125C26.6458 25.6042 27.2708 25.3438 28 25.3438C28.7292 25.3438 29.3542 25.6042 29.875 26.125C30.3958 26.6458 30.6562 27.2708 30.6562 28C30.6562 28.7292 30.3958 29.3542 29.875 29.875C29.3542 30.3958 28.7292 30.6562 28 30.6562C27.2708 30.6562 26.6458 30.3958 26.125 29.875Z" fill="white"/>
</svg>
