<svg width="69" height="69" viewBox="0 0 69 69" fill="none" xmlns="http://www.w3.org/2000/svg">
<g filter="url(#filter0_d_542_6896)">
<circle cx="34.5" cy="34.5" r="30.5" fill="white"/>
</g>
<path d="M48.4533 21.1659L58.0899 24.3368L55.6248 31.8277L51.4049 30.4401L45.3015 48.9886L35.7603 45.8463L41.8636 27.2979L42.7839 24.5037L43.1606 23.3641C45.435 24.1127 47.8048 23.1304 48.4533 21.1659Z" fill="#FF4E1F"/>
<path d="M58.0946 24.3383L55.6287 31.8296L56.5073 32.1188L58.9732 24.6276L58.0946 24.3383Z" fill="#FF5C5C"/>
<path d="M35.765 45.8557L35.27 47.3594L44.8085 50.4991L45.3034 48.9955L35.765 45.8557Z" fill="#FF5C5C"/>
<path d="M40.2137 18.4527L30.5723 15.2819L28.1071 22.7728L32.327 24.1603L26.2236 42.7088L35.7649 45.8511L41.8682 27.3026L42.7885 24.5084L43.1652 23.3688C40.8908 22.6202 39.57 20.422 40.2137 18.4575V18.4527Z" fill="#FF6A4D"/>
<path d="M29.695 14.9999L27.2291 22.4912L28.1078 22.7804L30.5737 15.2892L29.695 14.9999Z" fill="#FF5C5C"/>
<path d="M26.2208 42.7116L25.7258 44.2153L35.2688 47.3566L35.7638 45.8529L26.2208 42.7116Z" fill="#FF5C5C"/>
<path d="M21.7081 36.7771L20.9166 33.7731C17.946 34.5551 14.9706 35.3371 12 36.119C12.2336 37.1061 12.4673 38.0979 12.7057 39.0849C15.1661 38.6415 18.5516 37.9024 21.7081 36.7818V36.7771Z" fill="#45C6AB"/>
<path d="M21.7081 36.7771C18.5516 37.8976 15.1661 38.6367 12.7057 39.0802C12.7629 39.3138 12.8154 39.5475 12.8726 39.7811C12.8583 39.7811 12.8487 39.7811 12.8344 39.7811C12.3338 43.8627 12.1144 48.8026 13.4686 53.7044C17.2308 54.391 21.5699 53.8331 24.6692 52.5314C24.221 49.7801 23.6727 46.3327 23.358 43.0807C23.3675 43.0998 23.3723 43.1141 23.3818 43.1332L21.7129 36.7771H21.7081Z" fill="#40AFA1"/>
<path d="M30.6438 34.1593C30.3816 33.2486 30.1146 32.3331 29.8523 31.4224C26.8722 32.2044 23.892 32.9863 20.9166 33.7731L21.7082 36.7771C25.4083 35.4611 28.7127 34.6123 30.6438 34.1593Z" fill="#59CEB2"/>
<path d="M23.377 43.1331C24.6931 46.1038 25.9042 49.3509 26.8578 51.9544C30.2004 51.5682 34.2868 49.904 37.224 47.4532C35.1641 42.1795 33.3236 38.2934 30.8918 35.0319C30.8059 34.741 30.7249 34.4502 30.6391 34.1593C28.7032 34.6075 25.4035 35.461 21.7034 36.7771L23.3723 43.1331H23.377Z" fill="#45C6AB"/>
<defs>
<filter id="filter0_d_542_6896" x="0" y="0" width="69" height="69" filterUnits="userSpaceOnUse" color-interpolation-filters="sRGB">
<feFlood flood-opacity="0" result="BackgroundImageFix"/>
<feColorMatrix in="SourceAlpha" type="matrix" values="0 0 0 0 0 0 0 0 0 0 0 0 0 0 0 0 0 0 127 0" result="hardAlpha"/>
<feOffset/>
<feGaussianBlur stdDeviation="2"/>
<feComposite in2="hardAlpha" operator="out"/>
<feColorMatrix type="matrix" values="0 0 0 0 0 0 0 0 0 0 0 0 0 0 0 0 0 0 0.25 0"/>
<feBlend mode="normal" in2="BackgroundImageFix" result="effect1_dropShadow_542_6896"/>
<feBlend mode="normal" in="SourceGraphic" in2="effect1_dropShadow_542_6896" result="shape"/>
</filter>
</defs>
</svg>
