<svg width="69" height="69" viewBox="0 0 69 69" fill="none" xmlns="http://www.w3.org/2000/svg">
<g filter="url(#filter0_d_542_6885)">
<circle cx="34.5" cy="34.5" r="30.5" fill="white"/>
</g>
<g clip-path="url(#clip0_542_6885)">
<path d="M27 21.9462V22.6415C27 22.4015 27.0134 22.1721 27.0335 21.9462H27Z" fill="#7DC5C9"/>
<path d="M34.5 16.4754V12H33.5491C32.6685 12 31.9553 12.7518 31.9553 13.68V16.6942C32.6283 16.546 33.3448 16.4719 34.0881 16.4719H34.5V16.4754Z" fill="#9ADEE5"/>
<path d="M34.9118 16.4754C35.6551 16.4754 36.3717 16.5495 37.0446 16.6978V13.68C37.0446 12.7518 36.3315 12 35.4509 12H34.5V16.4754H34.9118Z" fill="#86D1D1"/>
<path d="M41.9631 21.9462C41.6919 19.0238 39.7098 17.2802 37.0412 16.6943C36.3682 16.546 35.6517 16.4719 34.9084 16.4719H34.4966V26.8134C37.001 26.8134 39.5089 27.0004 41.9966 27.3746V21.9462H41.9631Z" fill="#7DC5C9"/>
<path d="M34.0882 16.4755C33.3449 16.4755 32.6283 16.5496 31.9554 16.6978C29.2902 17.2802 27.3047 19.0238 27.0335 21.9462C27.0134 22.1721 27 22.4015 27 22.6415V27.3746C29.4877 27.0004 31.9922 26.8134 34.5 26.8134V16.4755H34.0882Z" fill="#AFE6EF"/>
<path d="M26.9999 47.5738V54.6081C26.9999 56.0482 28.1082 57.2164 29.4743 57.2164H29.5245C30.2879 57.2164 31.1249 56.8529 31.7142 56.2776C32.1897 57.28 33.4017 57.9965 34.4731 57.9965H34.4966V48.1315C31.9921 48.1315 29.4843 47.9444 26.9966 47.5703L26.9999 47.5738Z" fill="#AFE6EF"/>
<path d="M34.4999 48.1351V58H34.5234C35.5948 58 36.8068 57.2835 37.2823 56.2811C37.8716 56.8529 38.7086 57.22 39.472 57.22H39.5223C40.8883 57.22 41.9966 56.0517 41.9966 54.6117V47.5774C39.5089 47.9515 37.0044 48.1386 34.4966 48.1386L34.4999 48.1351Z" fill="#7DC5C9"/>
<g style="mix-blend-mode:screen">
<path d="M31.2489 17.7249L30.1273 19.0802C29.4342 19.9202 29.0525 20.9932 29.0525 22.1085V52.0069C29.0525 52.494 29.4275 52.8893 29.8895 52.8893H29.9063C30.3717 52.8893 30.7467 52.4905 30.74 51.9998L30.4253 21.1732C30.4152 20.1143 30.6362 19.0696 31.0715 18.1166L31.2489 17.7249Z" fill="#AFE6EF"/>
</g>
<path d="M34.5 26.8169V48.1351C37.0045 48.1351 39.5123 47.948 42 47.5739V27.3781C39.5123 27.004 37.0078 26.8169 34.5 26.8169Z" fill="#40AFA1"/>
<path d="M34.5 26.8169C31.9955 26.8169 29.4877 27.004 27 27.3781V47.5774C29.4877 47.9516 31.9922 48.1386 34.5 48.1386V26.8169Z" fill="#45C6AB"/>
</g>
<defs>
<filter id="filter0_d_542_6885" x="0" y="0" width="69" height="69" filterUnits="userSpaceOnUse" color-interpolation-filters="sRGB">
<feFlood flood-opacity="0" result="BackgroundImageFix"/>
<feColorMatrix in="SourceAlpha" type="matrix" values="0 0 0 0 0 0 0 0 0 0 0 0 0 0 0 0 0 0 127 0" result="hardAlpha"/>
<feOffset/>
<feGaussianBlur stdDeviation="2"/>
<feComposite in2="hardAlpha" operator="out"/>
<feColorMatrix type="matrix" values="0 0 0 0 0 0 0 0 0 0 0 0 0 0 0 0 0 0 0.25 0"/>
<feBlend mode="normal" in2="BackgroundImageFix" result="effect1_dropShadow_542_6885"/>
<feBlend mode="normal" in="SourceGraphic" in2="effect1_dropShadow_542_6885" result="shape"/>
</filter>
<clipPath id="clip0_542_6885">
<rect width="15" height="46" fill="white" transform="translate(27 12)"/>
</clipPath>
</defs>
</svg>
