<svg width="69" height="69" viewBox="0 0 69 69" fill="none" xmlns="http://www.w3.org/2000/svg">
<g filter="url(#filter0_d_542_6895)">
<circle cx="34.5" cy="34.5" r="30.5" fill="white"/>
</g>
<g clip-path="url(#clip0_542_6895)">
<path d="M28.8328 44.4594C29.746 44.684 31.0538 44.9953 31.197 45.0113H34.5V43.5609L28.8678 42.8613L28.8328 42.6399V44.4594Z" fill="#195467"/>
<path d="M40.1323 42.8614L34.5 43.5609V45.0114H37.8284C38.2326 45.0114 39.4799 44.6392 40.1514 44.4338V42.733L40.1323 42.8614Z" fill="#0F4956"/>
<path d="M31.1557 54.8692C31.1334 54.8692 29.9083 54.7409 28.8328 54.282L29.4024 55.142C30.8247 56.3421 32.6131 56.9968 34.4618 56.9968H34.4968V54.866H31.1525L31.1557 54.8692Z" fill="#195467"/>
<path d="M28.8328 48.2653C29.746 48.4899 31.0538 48.8012 31.197 48.8204H34.5V47.2576H31.1557C31.1334 47.2576 29.9083 47.1293 28.8328 46.6704V48.2685V48.2653Z" fill="#195467"/>
<path d="M34.5 54.8693V57H34.5223C36.3711 57 38.1626 56.3422 39.5818 55.1452L40.1514 54.4553C39.5181 54.7217 38.7258 54.8725 37.8284 54.8725H34.5V54.8693Z" fill="#0F4956"/>
<path d="M28.8328 52.071C29.746 52.2989 31.0538 52.6069 31.197 52.6262H34.5V51.0634H31.1557C31.1334 51.0634 29.9083 50.9351 28.8328 50.4762V52.0743V52.071Z" fill="#195467"/>
<path d="M34.5 51.0634V52.6262H37.8284C38.2326 52.6262 39.4799 52.2539 40.1514 52.0486V50.6462C39.5181 50.9126 38.7258 51.0634 37.8284 51.0634H34.5Z" fill="#0F4956"/>
<path d="M37.8284 48.8204C38.2326 48.8204 39.4799 48.4481 40.1514 48.2428V46.8405C39.5181 47.1068 38.7258 47.2576 37.8284 47.2576H34.5V48.8204H37.8284Z" fill="#0F4956"/>
<path d="M40.1514 44.4338C39.4799 44.6391 38.2326 45.0114 37.8284 45.0114H34.5V47.2544H37.8284C38.7258 47.2544 39.5181 47.1036 40.1514 46.8373V46.6672C40.215 46.6929 40.2691 46.7249 40.3296 46.7506C41.2173 46.327 41.7519 45.6564 41.7519 44.8349C41.7519 44.0134 41.1473 43.2753 40.1514 42.8582V44.4305V44.4338Z" fill="#349299"/>
<path d="M34.5 47.2544V45.0113H31.197C31.0538 44.9921 29.7428 44.684 28.8328 44.4594V42.8613C27.8368 43.2785 27.2322 43.9845 27.2322 44.8605C27.2322 45.7366 27.9863 46.3045 28.8328 46.6639C29.9083 47.1228 31.1334 47.2512 31.1557 47.2512H34.5V47.2544Z" fill="#3FA4A9"/>
<path d="M28.8328 48.1401V46.6704C27.8368 47.0876 27.2322 47.7935 27.2322 48.6696C27.2322 49.5456 27.9863 50.1136 28.8328 50.4762V48.1401Z" fill="#3FA4A9"/>
<path d="M40.1514 48.1304V50.4762C40.215 50.5018 40.2723 50.5339 40.3296 50.5628C41.2174 50.136 41.7519 49.4686 41.7519 48.6471C41.7519 47.8256 41.2142 47.1774 40.3296 46.7538C40.2691 46.7827 40.215 46.8115 40.1514 46.8404V48.1336V48.1304Z" fill="#349299"/>
<path d="M34.5 51.0635V48.8204H31.197C31.0538 48.8012 29.7428 48.4931 28.8328 48.2653V50.4762C29.9083 50.9351 31.1334 51.0635 31.1557 51.0635H34.5Z" fill="#3FA4A9"/>
<path d="M34.5 48.8203V51.0634H37.8284C38.7258 51.0634 39.5181 50.9126 40.1514 50.6462V48.2395C39.4799 48.4449 38.2326 48.8171 37.8284 48.8171H34.5V48.8203Z" fill="#349299"/>
<path d="M40.1514 46.8372C40.215 46.8115 40.2691 46.7794 40.3296 46.7505C40.2691 46.7217 40.215 46.6928 40.1514 46.6671V46.8372Z" fill="#A6CFE5"/>
<path d="M40.1514 51.9395V54.4553C41.1474 54.0382 41.7519 53.329 41.7519 52.4561C41.7519 51.6475 41.2174 50.9864 40.3296 50.5629C40.2691 50.5917 40.215 50.6238 40.1514 50.6495V51.9427V51.9395Z" fill="#349299"/>
<path d="M28.8328 51.9491V50.4794C27.8368 50.8965 27.2322 51.6025 27.2322 52.4786C27.2322 53.3546 27.9863 53.9226 28.8328 54.2852V51.9491Z" fill="#3FA4A9"/>
<path d="M34.5 54.8693V52.6262H31.197C31.0538 52.6069 29.7428 52.2989 28.8328 52.071V54.282C29.9083 54.7409 31.1334 54.8693 31.1557 54.8693H34.5Z" fill="#3FA4A9"/>
<path d="M37.8284 52.6262H34.5V54.8693H37.8284C38.7258 54.8693 39.5181 54.7185 40.1514 54.4521V52.0454C39.4799 52.2508 38.2326 52.623 37.8284 52.623V52.6262Z" fill="#349299"/>
<path d="M40.1514 50.6463C40.215 50.6206 40.2723 50.5885 40.3296 50.5597C40.2691 50.5308 40.215 50.5019 40.1514 50.473V50.6431V50.6463Z" fill="#A6CFE5"/>
<path d="M34.5 39.4246V14C28.1486 14 23 18.7621 23 24.6345C23 26.117 23.3278 27.529 23.9228 28.8093C25.1415 31.4375 27.3149 34.133 27.9227 36.9376L28.8327 42.6399V39.4278H34.5V39.4246ZM26.4239 24.1082C26.4239 24.4933 26.1089 24.8078 25.7175 24.8078C25.3261 24.8078 25.0111 24.4933 25.0111 24.1082C25.0111 19.6381 28.68 16.0024 33.189 16.0024C33.5772 16.0024 33.8954 16.3169 33.8954 16.7019C33.8954 17.087 33.5804 17.4015 33.189 17.4015C29.4564 17.4015 26.4207 20.4115 26.4207 24.1082H26.4239Z" fill="#7BCFE4"/>
<path d="M34.5 43.5577V39.4246H28.8328V42.6399L28.8678 42.8614L34.5 43.5577Z" fill="#7BCFE4"/>
<path d="M34.5 35.269V39.4278H40.1514V42.733L41.0773 36.9376C41.6851 34.133 43.8585 31.4375 45.0772 28.8093C45.6691 27.529 46 26.117 46 24.6345C46 18.7621 40.8514 14 34.5 14V35.269Z" fill="#64B9CD"/>
<path d="M34.5 39.4246V43.5577L40.1323 42.8614L40.1514 42.7298V39.4246H34.5Z" fill="#64B9CD"/>
<path d="M33.8954 16.702C33.8954 16.3169 33.5804 16.0024 33.189 16.0024C28.68 16.0024 25.0111 19.6382 25.0111 24.1083C25.0111 24.4933 25.3261 24.8078 25.7175 24.8078C26.1089 24.8078 26.4239 24.4933 26.4239 24.1083C26.4239 20.4083 29.4596 17.4015 33.1922 17.4015C33.5804 17.4015 33.8986 17.0871 33.8986 16.702H33.8954Z" fill="white"/>
<path d="M37.3448 43.3266L36.737 43.2336L38.8945 28.9634C38.799 28.7227 38.4108 27.8852 37.6535 27.7953C37.2907 27.7536 36.9852 27.7664 36.7307 27.8178C37.2016 28.1772 37.4721 28.6425 37.4721 29.0917C37.4721 29.3934 37.3448 29.6629 37.1125 29.8458C36.8802 30.0287 36.5652 30.1218 36.1706 30.1218C35.3974 30.1218 35.076 29.7303 34.9551 29.4961C34.7451 29.0917 34.7992 28.5847 35.1046 28.1355C35.1715 28.0392 35.2447 27.9493 35.3274 27.8659C35.1206 27.8242 34.8946 27.8017 34.6496 27.8017C34.1882 27.8017 33.7968 27.8787 33.4722 28.0007C33.9464 28.4082 34.2837 28.9024 34.2837 29.3228C34.2837 29.5795 34.1627 29.7977 33.9432 29.9389C33.7459 30.064 33.4818 30.125 33.1254 30.125C32.7022 30.125 32.3617 30.0352 32.1167 29.8619C31.8621 29.679 31.7221 29.4126 31.7221 29.1046C31.7221 28.7195 31.9353 28.3184 32.314 27.9814C32.0753 27.8723 31.8271 27.8049 31.6012 27.8049C30.5606 27.8049 30.4079 28.7227 30.3888 28.9281L32.5526 43.2432L31.9448 43.3363L29.7683 28.9537V28.9216C29.8033 28.3216 30.2329 27.1856 31.598 27.1856C32.0021 27.1856 32.4603 27.346 32.8836 27.5931C33.3609 27.346 33.9591 27.1856 34.6401 27.1856C35.1396 27.1856 35.5883 27.2722 35.9765 27.4166C36.4634 27.1952 37.068 27.1118 37.7235 27.1888C38.9995 27.3396 39.4832 28.7805 39.5023 28.8446L39.5245 28.9152L39.5118 28.989L37.3416 43.3395L37.3448 43.3266ZM36.0147 28.0937C35.792 28.2381 35.6647 28.3986 35.6074 28.4788C35.4356 28.7291 35.3942 29.0051 35.4929 29.2008C35.5915 29.3902 35.8302 29.4961 36.1643 29.4961C36.4793 29.4961 36.6448 29.419 36.7243 29.3516C36.8102 29.2843 36.8484 29.1976 36.8484 29.0853C36.8484 28.7997 36.5684 28.3761 36.0083 28.0905L36.0147 28.0937ZM32.8772 28.3087C32.5208 28.5719 32.3394 28.8799 32.3394 29.0981C32.3394 29.204 32.3808 29.2843 32.4731 29.3484C32.5685 29.4158 32.7595 29.4993 33.1254 29.4993C33.2177 29.4993 33.6663 29.4896 33.6663 29.3196C33.6663 29.0628 33.329 28.6457 32.8772 28.3119V28.3087Z" fill="white"/>
</g>
<defs>
<filter id="filter0_d_542_6895" x="0" y="0" width="69" height="69" filterUnits="userSpaceOnUse" color-interpolation-filters="sRGB">
<feFlood flood-opacity="0" result="BackgroundImageFix"/>
<feColorMatrix in="SourceAlpha" type="matrix" values="0 0 0 0 0 0 0 0 0 0 0 0 0 0 0 0 0 0 127 0" result="hardAlpha"/>
<feOffset/>
<feGaussianBlur stdDeviation="2"/>
<feComposite in2="hardAlpha" operator="out"/>
<feColorMatrix type="matrix" values="0 0 0 0 0 0 0 0 0 0 0 0 0 0 0 0 0 0 0.25 0"/>
<feBlend mode="normal" in2="BackgroundImageFix" result="effect1_dropShadow_542_6895"/>
<feBlend mode="normal" in="SourceGraphic" in2="effect1_dropShadow_542_6895" result="shape"/>
</filter>
<clipPath id="clip0_542_6895">
<rect width="23" height="43" fill="white" transform="translate(23 14)"/>
</clipPath>
</defs>
</svg>
