<svg width="69" height="69" viewBox="0 0 69 69" fill="none" xmlns="http://www.w3.org/2000/svg">
<g filter="url(#filter0_d_748_6900)">
<circle cx="34.5" cy="34.5" r="30.5" fill="white"/>
</g>
<path d="M45.215 45.466V49.3704C45.215 49.7926 45.0473 50.1975 44.7487 50.496C44.4502 50.7946 44.0453 50.9623 43.6231 50.9623H24.5918C24.1697 50.9623 23.7648 50.7946 23.4662 50.496C23.1677 50.1975 23 49.7926 23 49.3704V45.466H45.215Z" fill="#00EFD1"/>
<path d="M45.215 23.5261V45.466H23V23.5261H45.215Z" fill="#00ACEA"/>
<path d="M43.4551 18.0298H43.6231C44.0453 18.0298 44.4502 18.1975 44.7487 18.496C45.0473 18.7946 45.215 19.1994 45.215 19.6216V23.526H23V19.6216C23 19.1994 23.1677 18.7946 23.4662 18.496C23.7648 18.1975 24.1697 18.0298 24.5918 18.0298H43.4551Z" fill="#00EFD1"/>
<path d="M43.4551 50.964V51.3469C43.4551 52.0506 43.1756 52.7254 42.6781 53.2229C42.1805 53.7205 41.5057 54 40.8021 54H27.4129C26.7093 54 26.0345 53.7205 25.537 53.2229C25.0394 52.7254 24.7599 52.0506 24.7599 51.3469V50.9622H43.4551V50.964ZM43.4551 17.6531V18.0298H24.7599V17.6531C24.7599 16.9494 25.0394 16.2746 25.537 15.7771C26.0345 15.2795 26.7093 15 27.4129 15H40.8021C41.5057 15 42.1805 15.2795 42.6781 15.7771C43.1756 16.2746 43.4551 16.9494 43.4551 17.6531Z" fill="#D4E1F4"/>
<path d="M38.3214 27.6595H29.8936V41.3404H38.3214V27.6595Z" fill="#FEDB41"/>
<defs>
<filter id="filter0_d_748_6900" x="0" y="0" width="69" height="69" filterUnits="userSpaceOnUse" color-interpolation-filters="sRGB">
<feFlood flood-opacity="0" result="BackgroundImageFix"/>
<feColorMatrix in="SourceAlpha" type="matrix" values="0 0 0 0 0 0 0 0 0 0 0 0 0 0 0 0 0 0 127 0" result="hardAlpha"/>
<feOffset/>
<feGaussianBlur stdDeviation="2"/>
<feComposite in2="hardAlpha" operator="out"/>
<feColorMatrix type="matrix" values="0 0 0 0 0 0 0 0 0 0 0 0 0 0 0 0 0 0 0.25 0"/>
<feBlend mode="normal" in2="BackgroundImageFix" result="effect1_dropShadow_748_6900"/>
<feBlend mode="normal" in="SourceGraphic" in2="effect1_dropShadow_748_6900" result="shape"/>
</filter>
</defs>
</svg>
