<svg width="69" height="69" viewBox="0 0 69 69" fill="none" xmlns="http://www.w3.org/2000/svg">
<g filter="url(#filter0_d_542_6902)">
<circle cx="34.5" cy="34.5" r="30.5" fill="white"/>
</g>
<g clip-path="url(#clip0_542_6902)">
<path d="M30.7973 52.0001H19.3302C18.4717 51.4782 17.6891 50.8384 17 50.1102C19.9288 48.7894 21.9641 45.8205 21.9641 42.374C21.9641 38.9275 19.9288 35.9616 17.0058 34.6349C17.254 34.3695 17.5169 34.116 17.7913 33.8772C18.244 33.4821 19.2572 33.205 20.0106 33.205H30.114C30.8674 33.205 31.8807 33.4821 32.3362 33.8772C32.6107 34.116 32.8706 34.3725 33.1188 34.6408C30.1987 35.9616 28.1605 38.9305 28.1605 42.374C28.1605 45.8176 30.1958 48.7894 33.1246 50.1102C32.4355 50.8384 31.6529 51.4782 30.7944 52.0001H30.7973Z" fill="#F7ECC9"/>
<path d="M33.0487 50.178C32.38 50.8856 31.6267 51.4988 30.7944 52H19.3302C18.5009 51.4988 17.7446 50.8856 17.0759 50.178C17.5928 50.4522 18.1797 50.6055 18.7988 50.6055C20.5479 50.6055 22.0196 49.4085 22.4489 47.787C22.5219 49.1756 23.6607 50.2901 25.0623 50.2901C26.464 50.2901 27.6028 49.1756 27.6758 47.787C28.105 49.4085 29.5768 50.6055 31.3259 50.6055C31.9449 50.6055 32.529 50.4522 33.0487 50.178Z" fill="#E74425"/>
<path d="M33.1218 34.6437L33.0867 34.6643C32.5611 34.3813 31.9625 34.225 31.3288 34.225C29.5855 34.225 28.1138 35.4132 27.6787 37.0435C27.6057 35.6549 26.4669 34.5405 25.0624 34.5405C23.6578 34.5405 22.5219 35.6549 22.4489 37.0435C22.0138 35.4132 20.5421 34.225 18.7988 34.225C18.1651 34.225 17.5724 34.3813 17.0497 34.6584L17.0088 34.6378C17.2599 34.3754 17.5198 34.1218 17.7914 33.883C18.2469 33.485 19.2631 33.2108 20.0106 33.2108H30.117C30.8675 33.2108 31.8866 33.485 32.3363 33.883C32.6166 34.1248 32.8735 34.3783 33.1188 34.6466L33.1218 34.6437Z" fill="#E74425"/>
<path d="M27.3196 47.0381C26.2158 45.8972 25.6843 44.2491 25.6405 42.6482C25.6026 41.0473 26.0522 39.3786 27.0772 38.1698C26.8085 38.9128 26.6041 39.6439 26.4786 40.3898C26.3559 41.1387 26.2946 41.8728 26.3209 42.6305C26.353 44.1312 26.6801 45.6023 27.3225 47.0381H27.3196Z" fill="#DFD4B0"/>
<path d="M22.808 47.0381C23.4475 45.6053 23.7774 44.1312 23.8096 42.6305C23.8329 41.8728 23.7745 41.1387 23.6519 40.3898C23.5234 39.6469 23.3219 38.9128 23.0533 38.1698C24.0782 39.3786 24.5279 41.0473 24.4899 42.6482C24.4461 44.2491 23.9118 45.8972 22.8109 47.0381H22.808Z" fill="#DFD4B0"/>
<path d="M26.1486 33.2963C26.1486 33.4261 25.6668 33.5381 25.0653 33.5381C24.4637 33.5381 23.9761 33.429 23.9761 33.2963C23.9761 33.2639 24.0053 33.2344 24.0637 33.2079H26.0639C26.1194 33.2344 26.1457 33.2639 26.1457 33.2963H26.1486Z" fill="#A82B26"/>
<path d="M23.8183 27.6209C23.9848 27.8656 24.0899 28.1015 24.1921 28.3256C24.2914 28.5526 24.3819 28.7796 24.4637 29.0037C24.6272 29.4577 24.7732 29.9147 24.9017 30.3746C25.0272 30.8375 25.1411 31.3033 25.22 31.7809C25.29 32.2585 25.3514 32.7509 25.2638 33.2639C25.2433 33.3907 25.1236 33.4762 24.998 33.4526C24.8929 33.4349 24.817 33.3494 24.8082 33.2492V33.2344C24.7644 32.8128 24.6506 32.3765 24.5162 31.946C24.3877 31.5156 24.2271 31.0881 24.0549 30.6665C23.8797 30.2449 23.6898 29.8321 23.4854 29.4312C23.281 29.042 23.062 28.6086 22.8372 28.3462C22.6211 28.0868 22.6532 27.7005 22.9073 27.4794C23.1613 27.2583 23.5468 27.2907 23.7628 27.5502L23.8008 27.5974L23.8125 27.6121L23.8183 27.6209Z" fill="#7E5458"/>
<path d="M25.0418 32.2054L24.9367 32.173C24.852 32.114 24.8316 31.9961 24.8929 31.9106C25.474 31.0733 26.1164 30.4335 26.7033 30.1092C26.7939 30.0591 26.9048 30.0915 26.9545 30.1829C27.0041 30.2714 26.972 30.3864 26.8815 30.4365C26.3413 30.7372 25.7426 31.3357 25.1937 32.1288C25.1586 32.1789 25.1002 32.2084 25.0418 32.2084V32.2054Z" fill="#7E5458"/>
<path d="M36.2608 27.9924C35.5016 29.1422 33.2707 30.6724 31.6997 30.9318C30.2192 31.1765 27.6583 30.9112 26.6363 30.5928C26.575 30.5751 26.5166 30.5603 26.4669 30.5397C26.4874 30.41 26.5107 30.2832 26.5458 30.1535C26.9838 28.3167 28.362 26.5389 30.3857 26.2235C32.5494 25.8844 34.6665 27.6032 36.2608 27.9924Z" fill="#9CC73C"/>
<path d="M31.5712 28.3845C30.6368 28.3963 29.7199 28.6439 28.8877 29.0449C28.4701 29.2453 28.0759 29.4812 27.6992 29.7495C27.3283 30.006 26.9896 30.2949 26.6363 30.5927C26.575 30.575 26.5166 30.5603 26.4669 30.5396C26.4874 30.4099 26.5107 30.2831 26.5458 30.1534C26.864 29.9234 27.1882 29.6905 27.5327 29.4871C27.9416 29.2424 28.365 29.0301 28.8059 28.8562C29.6878 28.5053 30.6368 28.3314 31.5741 28.3874L31.5712 28.3845Z" fill="#379B48"/>
<path d="M27.3166 42.3858C27.3166 42.8841 27.1648 43.0521 26.9749 43.0521C26.7851 43.0521 26.6333 42.8841 26.6333 42.3858C26.6333 41.8876 26.9749 41.4836 26.9749 41.4836C26.9749 41.4836 27.3166 41.8876 27.3166 42.3858Z" fill="#7E5458"/>
<path d="M23.4884 42.3858C23.4884 42.8841 23.3365 43.0521 23.1467 43.0521C22.9569 43.0521 22.8051 42.8841 22.8051 42.3858C22.8051 41.8876 23.1467 41.4836 23.1467 41.4836C23.1467 41.4836 23.4884 41.8876 23.4884 42.3858Z" fill="#7E5458"/>
<path d="M49.8887 47.0293C48.3031 45.163 45.2546 45.1689 45.1903 45.1719C45.1261 45.1719 42.0805 45.163 40.4949 47.0293C38.8917 48.9162 39.3911 52.003 39.3911 52.003C39.3911 52.003 42.4893 52.0295 44.0924 50.1456C44.7669 49.3495 45.0706 48.3412 45.1933 47.4391C45.3159 48.3412 45.6167 49.3495 46.2941 50.1456C47.8972 52.0325 50.9954 52.003 50.9954 52.003C50.9954 52.003 51.4948 48.9162 49.8917 47.0293" fill="#C2C2C0"/>
<path d="M39.397 52H39.3911C39.3911 52 39.3181 51.546 39.3181 50.8797C39.3181 49.8094 39.5079 48.1909 40.4949 47.0292C41.5607 45.7733 43.2894 45.3664 44.326 45.2338C44.326 45.2485 44.326 45.2632 44.3231 45.278C43.2777 45.449 41.7681 45.8912 40.8015 47.0292C39.251 48.8542 39.6656 51.7995 39.6948 51.9912C39.5254 52.0029 39.4203 52.0029 39.397 52.0029" fill="#D5D5D2"/>
<path d="M50.9867 52C50.8174 52 47.8506 51.9734 46.2942 50.1426C47.8506 51.9764 50.8174 52 50.9867 52H50.9955C50.9955 52 50.9955 51.997 50.9955 51.9882V52H50.9867Z" fill="white"/>
<path d="M50.9867 52C50.8173 52 47.8505 51.9734 46.2941 50.1426C45.8094 49.5706 45.5174 48.8925 45.348 48.2203C45.3539 48.1967 45.3626 48.1879 45.3743 48.1879C45.5028 48.1879 45.9817 49.4143 46.6007 50.1426C47.9002 51.6697 50.1778 51.9439 50.9954 51.9911C50.9954 51.997 50.9954 52.0029 50.9954 52.0029H50.9867" fill="#D5D5D2"/>
<path d="M42.6471 22.4261C41.7535 22.4261 41.0323 21.6979 41.0323 20.7957C41.0323 19.8936 41.7564 19.1653 42.6471 19.1653C43.5377 19.1653 44.2619 19.8965 44.2619 20.7957C44.2619 21.6949 43.5377 22.4261 42.6471 22.4261ZM45.1904 14C45.1904 14 40.6235 15.5154 38.9678 23.3813C40.7841 24.3837 42.9128 24.9616 45.1904 24.9616C47.4681 24.9616 49.5998 24.3837 51.416 23.3813C49.7633 15.483 45.1904 14 45.1904 14Z" fill="#C2C2C0"/>
<path d="M44.2473 24.9292C42.3259 24.7935 40.53 24.2452 38.9678 23.3813C40.6235 15.5154 45.1904 14 45.1904 14C45.1904 14 45.243 14.0177 45.3394 14.059C45.3394 14.059 45.3394 14.059 45.3423 14.059C44.5393 14.4039 40.7461 16.3674 39.2715 23.3813C40.7519 24.198 42.4368 24.7316 44.2414 24.9026C44.2414 24.9115 44.2414 24.9203 44.2443 24.9292" fill="#D5D5D2"/>
<path d="M42.8047 22.4172H42.8017C43.5697 22.3435 44.1829 21.7273 44.2559 20.952C44.1829 21.7273 43.5726 22.3435 42.8047 22.4172ZM44.2559 20.952C44.2559 20.952 44.2559 20.9461 44.2559 20.9431C44.2559 20.9431 44.2559 20.949 44.2559 20.952ZM44.2559 20.9431C44.2559 20.9431 44.2559 20.9372 44.2559 20.9343C44.2559 20.9343 44.2559 20.9402 44.2559 20.9431ZM44.2559 20.9313C44.2559 20.9313 44.2559 20.9254 44.2559 20.9225C44.2559 20.9254 44.2559 20.9284 44.2559 20.9313ZM44.2559 20.9225C44.2559 20.9225 44.2559 20.9166 44.2559 20.9136C44.2559 20.9166 44.2559 20.9195 44.2559 20.9225ZM44.2559 20.9136C44.2559 20.9136 44.2559 20.9077 44.2559 20.9048C44.2559 20.9048 44.2559 20.9107 44.2559 20.9136ZM44.2559 20.9048C44.2559 20.9048 44.2559 20.8989 44.2559 20.8959C44.2559 20.8959 44.2559 20.9018 44.2559 20.9048ZM44.2559 20.8959C44.2559 20.8959 44.2559 20.89 44.2559 20.8871C44.2559 20.89 44.2559 20.893 44.2559 20.8959ZM44.2559 20.8871C44.2559 20.8871 44.2559 20.8812 44.2559 20.8782C44.2559 20.8782 44.2559 20.8841 44.2559 20.8871ZM44.2559 20.8782C44.2559 20.8782 44.2559 20.8723 44.2559 20.8694C44.2559 20.8723 44.2559 20.8753 44.2559 20.8782ZM44.2559 20.8576C44.2559 20.8576 44.2559 20.8517 44.2559 20.8488C44.2559 20.8517 44.2559 20.8547 44.2559 20.8576ZM44.2559 20.837C44.2559 20.837 44.2559 20.8311 44.2559 20.8281C44.2559 20.8281 44.2559 20.834 44.2559 20.837ZM44.2559 20.7692C44.2559 20.7692 44.2559 20.7633 44.2559 20.7603C44.2559 20.7603 44.2559 20.7662 44.2559 20.7692ZM44.2559 20.7515C44.2559 20.7515 44.2559 20.7456 44.2559 20.7426C44.2559 20.7426 44.2559 20.7485 44.2559 20.7515ZM44.2559 20.7426C44.2267 19.923 43.596 19.2538 42.7959 19.1801C42.7959 19.1801 42.7988 19.1801 42.8017 19.1801C43.5989 19.2597 44.2267 19.923 44.2559 20.7426Z" fill="white"/>
<path d="M42.9536 22.4261C42.904 22.4261 42.8543 22.4261 42.8047 22.4173C43.5727 22.3436 44.183 21.7274 44.256 20.952C44.256 20.952 44.256 20.9461 44.256 20.9432C44.256 20.9432 44.256 20.9373 44.256 20.9343C44.256 20.9343 44.256 20.9284 44.256 20.9255C44.256 20.9255 44.256 20.9196 44.256 20.9166C44.256 20.9166 44.256 20.9107 44.256 20.9078C44.256 20.9078 44.256 20.9019 44.256 20.8989C44.256 20.8989 44.256 20.893 44.256 20.8871C44.256 20.8871 44.256 20.8812 44.256 20.8783C44.256 20.8783 44.256 20.8724 44.256 20.8695V20.8606C44.256 20.8606 44.256 20.8547 44.256 20.8518V20.8429C44.256 20.8429 44.256 20.837 44.256 20.8341V20.8223V20.8105V20.8016V20.7928V20.784V20.7722C44.256 20.7722 44.256 20.7663 44.256 20.7633V20.7515C44.256 20.7515 44.256 20.7456 44.256 20.7427C44.2268 19.9231 43.5989 19.2568 42.8018 19.1801C42.8514 19.1772 42.901 19.1713 42.9507 19.1713C43.8413 19.1713 44.5655 19.9024 44.5655 20.8016C44.5655 21.7009 43.8413 22.432 42.9507 22.432" fill="#D5D5D2"/>
<path d="M44.2238 46.4101C44.3114 45.4902 44.3757 44.5704 44.4282 43.6535C44.4866 42.7336 44.5275 41.8137 44.5596 40.8939C44.6297 39.0542 44.6648 37.2174 44.6764 35.3777C44.6794 34.4579 44.6823 33.538 44.6735 32.6181C44.6589 31.6983 44.6414 30.7784 44.6034 29.8586C44.5655 28.9387 44.5158 28.0218 44.4487 27.099C44.3815 26.1792 44.2997 25.2593 44.1713 24.3424H46.2095C46.0839 25.2623 46.0022 26.1821 45.9321 27.099C45.8649 28.0189 45.8153 28.9387 45.7773 29.8586C45.7393 30.7784 45.7189 31.6983 45.7072 32.6181C45.6985 33.538 45.6985 34.4579 45.7014 35.3777C45.7131 37.2174 45.7481 39.0542 45.8182 40.8939C45.8532 41.8137 45.8941 42.7336 45.9525 43.6535C46.0051 44.5733 46.0693 45.4932 46.1598 46.4101H44.2238Z" fill="#C2C2C0"/>
<path d="M51.854 26.3119C51.0363 27.2229 49.9647 27.8804 48.82 28.3285C47.6695 28.7707 46.4285 28.9948 45.1933 28.9948C43.9581 28.9948 42.7171 28.7737 41.5665 28.3314C40.4219 27.8833 39.3502 27.2258 38.5326 26.3119C39.7123 26.6097 40.8103 26.878 41.9111 27.0431C43.012 27.2141 44.1012 27.2966 45.1933 27.2996C46.2883 27.2996 47.3775 27.217 48.4784 27.046C49.5822 26.8809 50.6801 26.6126 51.8569 26.3119" fill="#C2C2C0"/>
<path d="M52 29.8322C51.1677 30.7726 50.0786 31.4507 48.9047 31.9166C47.7279 32.3765 46.4577 32.6065 45.1903 32.6065C43.923 32.6065 42.6528 32.3794 41.476 31.9195C40.3051 31.4566 39.21 30.7756 38.3807 29.8322C39.578 30.1624 40.6993 30.4513 41.8264 30.6311C42.9507 30.8169 44.069 30.9053 45.1874 30.9083C46.3087 30.9083 47.4242 30.8198 48.5484 30.6341C49.6785 30.4542 50.7969 30.1653 51.9941 29.8322" fill="#C2C2C0"/>
<path d="M51.5036 33.7002C50.7123 34.5523 49.6961 35.1537 48.6127 35.5665C47.5235 35.9733 46.3555 36.1767 45.1904 36.1767C44.0253 36.1767 42.8573 35.9763 41.7681 35.5665C40.6847 35.1537 39.6656 34.5523 38.8772 33.6973C40.0073 33.9243 41.0497 34.1425 42.0922 34.2722C43.1317 34.4078 44.1596 34.4756 45.1904 34.4786C46.2212 34.4786 47.249 34.4137 48.2886 34.2751C49.334 34.1454 50.3764 33.9272 51.5036 33.6973" fill="#C2C2C0"/>
<path d="M50.0173 37.6273C49.4858 38.3939 48.7441 38.9599 47.9148 39.3727C47.0826 39.7795 46.1482 40.0125 45.1933 40.0125C44.2326 40.0125 43.2982 39.7736 42.4689 39.3668C41.6454 38.9511 40.9067 38.388 40.3635 37.6303C41.2746 37.7806 42.0834 37.9723 42.8835 38.102C43.6778 38.2347 44.4429 38.3172 45.1904 38.3172C45.9438 38.3172 46.7118 38.2406 47.506 38.1108C48.3032 37.987 49.1091 37.7954 50.0173 37.6303" fill="#C2C2C0"/>
<path d="M42.5127 41.7518C43.0412 41.8698 43.4792 41.9464 43.9143 41.9936C44.3465 42.0437 44.7641 42.0643 45.1816 42.0643C45.5788 42.0643 45.9847 42.026 46.4227 41.9582C46.8636 41.8963 47.3221 41.799 47.8652 41.7518C47.6024 42.2353 47.214 42.598 46.7526 42.8722C46.2913 43.1405 45.7423 43.3026 45.1787 43.2997C44.6356 43.2997 44.0925 43.167 43.6136 42.9105C43.1405 42.654 42.7142 42.2678 42.5127 41.7518Z" fill="#C2C2C0"/>
<path d="M45.1903 27.6062C44.0982 27.6062 43.0061 27.5207 41.9082 27.3497C40.9329 27.2023 38.6581 26.4534 38.5297 26.3119C39.7094 26.6097 40.8073 26.878 41.9082 27.0431C43.0091 27.2141 44.0982 27.2966 45.1903 27.2996C46.2854 27.2996 47.3746 27.217 48.4754 27.046C49.5792 26.8809 50.6772 26.6126 51.854 26.3119C51.7255 26.4564 49.4507 27.2082 48.4754 27.3526C47.3746 27.5236 46.2854 27.6062 45.1903 27.6062Z" fill="#D5D5D2"/>
<path d="M45.1904 31.2178C44.069 31.2178 42.9536 31.1264 41.8294 30.9407C40.8307 30.7815 38.5122 29.9796 38.3837 29.8322C39.5809 30.1624 40.7022 30.4513 41.8294 30.6311C42.9536 30.8169 44.072 30.9053 45.1904 30.9083C46.3117 30.9083 47.4271 30.8198 48.5514 30.6341C49.6814 30.4542 50.7998 30.1653 51.997 29.8322C51.8656 29.9796 49.55 30.7844 48.5514 30.9436C47.4271 31.1294 46.3087 31.2178 45.1904 31.2178Z" fill="#D5D5D2"/>
<path d="M45.7014 34.4756C46.5278 34.4579 47.3542 34.396 48.1864 34.2899C47.3513 34.396 46.5278 34.4579 45.7014 34.4756ZM48.2244 34.2869C48.2448 34.2869 48.2652 34.281 48.2886 34.2781C48.2682 34.281 48.2477 34.284 48.2244 34.2869Z" fill="white"/>
<path d="M45.205 34.4815C45.3714 34.4815 45.5349 34.4815 45.7014 34.4756C45.5349 34.4785 45.3714 34.4815 45.205 34.4815Z" fill="#D5D5D2"/>
<path d="M45.2021 34.791H45.1904C44.1596 34.791 43.1317 34.7232 42.0922 34.5847C41.1724 34.4697 39.0028 33.8358 38.8772 33.7002C40.0073 33.9272 41.0497 34.1454 42.0922 34.2751C43.1317 34.4107 44.1596 34.4785 45.1904 34.4815H45.2079C45.3744 34.4815 45.5379 34.4815 45.7043 34.4756C46.5307 34.4579 47.3571 34.396 48.1893 34.2898C48.201 34.2898 48.2127 34.2869 48.2273 34.2869C48.2477 34.2869 48.2682 34.281 48.2915 34.2781C49.3369 34.1483 50.3794 33.9302 51.5065 33.7002C51.378 33.8358 49.2113 34.4697 48.2915 34.5876C47.2549 34.7232 46.2299 34.791 45.205 34.791" fill="#D5D5D2"/>
<path d="M45.1904 38.6238C44.4399 38.6238 43.6749 38.5413 42.8835 38.4057C42.1681 38.2907 40.454 37.7511 40.3635 37.6273C41.2746 37.7777 42.0834 37.9693 42.8835 38.099C43.6778 38.2317 44.4429 38.3143 45.1904 38.3143C45.9438 38.3143 46.7118 38.2376 47.506 38.1079C48.3032 37.9841 49.1091 37.7924 50.0173 37.6273C49.9297 37.7541 48.2185 38.3054 47.506 38.4175C46.7147 38.5472 45.9467 38.6238 45.1904 38.6238Z" fill="#D5D5D2"/>
<path d="M45.1816 42.371C44.767 42.371 44.3465 42.3503 43.9143 42.3002C43.5289 42.2589 42.5594 41.8727 42.5127 41.7489C43.0412 41.8668 43.4792 41.9435 43.9143 41.9907C44.3465 42.0408 44.7641 42.0614 45.1816 42.0614C45.5788 42.0614 45.9847 42.0231 46.4227 41.9553C46.8636 41.8934 47.3221 41.7961 47.8652 41.7489C47.8009 41.8668 46.8023 42.2118 46.4227 42.2648C45.9847 42.3297 45.5788 42.368 45.1816 42.371Z" fill="#D5D5D2"/>
</g>
<defs>
<filter id="filter0_d_542_6902" x="0" y="0" width="69" height="69" filterUnits="userSpaceOnUse" color-interpolation-filters="sRGB">
<feFlood flood-opacity="0" result="BackgroundImageFix"/>
<feColorMatrix in="SourceAlpha" type="matrix" values="0 0 0 0 0 0 0 0 0 0 0 0 0 0 0 0 0 0 127 0" result="hardAlpha"/>
<feOffset/>
<feGaussianBlur stdDeviation="2"/>
<feComposite in2="hardAlpha" operator="out"/>
<feColorMatrix type="matrix" values="0 0 0 0 0 0 0 0 0 0 0 0 0 0 0 0 0 0 0.25 0"/>
<feBlend mode="normal" in2="BackgroundImageFix" result="effect1_dropShadow_542_6902"/>
<feBlend mode="normal" in="SourceGraphic" in2="effect1_dropShadow_542_6902" result="shape"/>
</filter>
<clipPath id="clip0_542_6902">
<rect width="35" height="38" fill="white" transform="translate(17 14)"/>
</clipPath>
</defs>
</svg>
