<svg width="69" height="69" viewBox="0 0 69 69" fill="none" xmlns="http://www.w3.org/2000/svg">
<g filter="url(#filter0_d_542_6909)">
<circle cx="34.5" cy="34.5" r="30.5" fill="white"/>
</g>
<g clip-path="url(#clip0_542_6909)">
<path d="M47 53H22.5905C22.2032 52.1086 22 49.9826 22 49.0189V21.5039H47V53Z" fill="#BA2F2F"/>
<path d="M45.8793 20.3134H23.1206V51.8882H45.8793V20.3134Z" fill="#EDEDED"/>
<path d="M43.7079 44.4961L22 48.5969V17.1008L43.7079 13V44.4961Z" fill="#BA2F2F"/>
<path d="M45.8793 51.8882H22.4666C22.1682 50.663 22.1809 49.4977 22.4666 48.3859H45.8793V51.8882Z" fill="#D3D2CD"/>
<path d="M47 52.9874H22.5048L22.4635 52.8142C22.181 51.5858 21.9048 50.1181 22.0318 48.5307L22.0445 48.3606L22.2127 48.3291L43.4794 44.3102V13H43.927V44.6787L22.4699 48.7354C22.3841 50.1276 22.6127 51.4284 22.8635 52.5433H47V52.9874Z" fill="#962323"/>
<path d="M23.1207 47.3779C22.9969 47.3779 22.8953 47.2771 22.8953 47.1543V17.9322C22.8953 17.8094 22.9969 17.7086 23.1207 17.7086C23.2445 17.7086 23.3461 17.8094 23.3461 17.9322V47.1543C23.3461 47.2771 23.2445 47.3779 23.1207 47.3779Z" fill="#962323"/>
<path d="M45.8794 50.0267H24.3143V50.2504H45.8794V50.0267Z" fill="#B5B4B0"/>
<path d="M45.8794 51.4315H24.3143V51.6551H45.8794V51.4315Z" fill="#B5B4B0"/>
<path d="M45.8793 49.5354H23.1206V49.759H45.8793V49.5354Z" fill="#B5B4B0"/>
<path d="M45.8793 50.9779H23.1206V51.2015H45.8793V50.9779Z" fill="#B5B4B0"/>
<path d="M45.8826 48.6819H25.9016V48.9055H45.8826V48.6819Z" fill="#B5B4B0"/>
<path d="M30.8032 27.841C29.7747 27.841 28.8096 27.7276 27.9651 27.4977C26.3874 27.0725 25.4223 26.2977 25.2477 25.315C24.8921 23.3213 28.0159 21.0977 32.2096 20.3638C36.4032 19.6268 40.1048 20.6504 40.4604 22.6473C40.8159 24.641 37.6921 26.8646 33.4985 27.6016C32.5778 27.7622 31.6667 27.8441 30.8032 27.8441V27.841ZM34.9112 20.3418C34.0699 20.3418 33.1715 20.4173 32.2477 20.5811C28.1747 21.2961 25.1334 23.4032 25.4667 25.2772C25.6255 26.1685 26.5334 26.8835 28.0223 27.2835C29.5397 27.6929 31.4699 27.7276 33.4572 27.378C37.5302 26.663 40.5715 24.5559 40.2381 22.6819C39.981 21.2331 37.7778 20.3418 34.9112 20.3418Z" fill="#B76C39"/>
<path d="M37.2833 23.028L28.3838 24.7139L28.4261 24.9335L37.3256 23.2476L37.2833 23.028Z" fill="#B76C39"/>
<path d="M36.1257 24.0421L29.5366 25.2892L29.5789 25.5088L36.168 24.2618L36.1257 24.0421Z" fill="#B76C39"/>
<path d="M36.1246 21.783L29.5355 23.03L29.5778 23.2497L36.1669 22.0026L36.1246 21.783Z" fill="#B76C39"/>
</g>
<defs>
<filter id="filter0_d_542_6909" x="0" y="0" width="69" height="69" filterUnits="userSpaceOnUse" color-interpolation-filters="sRGB">
<feFlood flood-opacity="0" result="BackgroundImageFix"/>
<feColorMatrix in="SourceAlpha" type="matrix" values="0 0 0 0 0 0 0 0 0 0 0 0 0 0 0 0 0 0 127 0" result="hardAlpha"/>
<feOffset/>
<feGaussianBlur stdDeviation="2"/>
<feComposite in2="hardAlpha" operator="out"/>
<feColorMatrix type="matrix" values="0 0 0 0 0 0 0 0 0 0 0 0 0 0 0 0 0 0 0.25 0"/>
<feBlend mode="normal" in2="BackgroundImageFix" result="effect1_dropShadow_542_6909"/>
<feBlend mode="normal" in="SourceGraphic" in2="effect1_dropShadow_542_6909" result="shape"/>
</filter>
<clipPath id="clip0_542_6909">
<rect width="25" height="40" fill="white" transform="translate(22 13)"/>
</clipPath>
</defs>
</svg>
