<svg width="69" height="69" viewBox="0 0 69 69" fill="none" xmlns="http://www.w3.org/2000/svg">
<g filter="url(#filter0_d_542_6899)">
<circle cx="34.5" cy="34.5" r="30.5" fill="white"/>
</g>
<g clip-path="url(#clip0_542_6899)">
<path d="M38.6992 42.8114H29.4261V49.7748H38.6992V42.8114Z" fill="#9B9A94"/>
<path d="M44.0233 48.8751H24.0955V50.6712H44.0233V48.8751Z" fill="#C2C2C0"/>
<path d="M54.1221 20H14V45.8301H54.1221V20Z" fill="#7A786E"/>
<path d="M54.1221 20H14V45.8301H54.1221V20Z" fill="#C2C2C0"/>
<path d="M52.8236 21.4468H15.2986V44.3867H52.8236V21.4468Z" fill="#3A3832"/>
<path d="M44.0233 48.8751H24.0955V49.3134H44.0233V48.8751Z" fill="#9B9A94"/>
<path d="M37.2542 44.3076C37.2542 44.3076 37.2276 44.3043 37.2143 44.2944C37.1843 44.2714 37.181 44.2252 37.2009 44.1923C41.7193 37.5518 45.0056 29.758 46.7037 21.6445C46.7104 21.6049 46.747 21.5819 46.7803 21.5918C46.8169 21.6016 46.8369 21.6412 46.8302 21.6774C45.1255 29.8074 41.8325 37.6243 37.3042 44.278C37.2908 44.2977 37.2709 44.3076 37.2509 44.3076H37.2542Z" fill="#9B9A94"/>
<path d="M45.0521 44.0274C45.0188 44.0274 44.9889 43.9978 44.9889 43.9615C44.7624 40.3529 44.1198 36.7872 43.0843 33.3599C43.0743 33.3236 43.091 33.2808 43.1243 33.2676C43.1576 33.2544 43.1942 33.2742 43.2075 33.3138C44.2463 36.751 44.8923 40.3299 45.1187 43.9483C45.1187 43.9879 45.0954 44.0241 45.0588 44.0241C45.0588 44.0241 45.0588 44.0241 45.0554 44.0241L45.0521 44.0274Z" fill="#9B9A94"/>
<path d="M42.182 32.3318C42.162 32.3318 42.1421 32.3219 42.1287 32.2988C40.2109 29.1351 38.9789 25.4574 38.5627 21.6675C38.5594 21.628 38.5827 21.5917 38.6193 21.5884C38.6526 21.5819 38.6859 21.6115 38.6926 21.6511C39.1054 25.4178 40.3307 29.0725 42.2353 32.2164C42.2553 32.2494 42.2486 32.2955 42.2186 32.3153C42.2086 32.3252 42.1953 32.3285 42.182 32.3285V32.3318Z" fill="#9B9A94"/>
<path d="M39.7281 27.1644C39.7281 27.1644 39.7247 27.1644 39.7214 27.1644C38.4961 27.0491 37.2608 26.3735 36.2419 25.2563C35.4162 24.3533 34.7303 23.1966 34.0843 21.6214C34.071 21.5851 34.0843 21.5423 34.1176 21.5258C34.1509 21.5093 34.1875 21.5258 34.2042 21.5621C34.8435 23.1208 35.5194 24.2611 36.3352 25.1542C37.3307 26.245 38.5394 26.9074 39.7347 27.0194C39.7713 27.0227 39.798 27.0589 39.7947 27.0985C39.7947 27.1347 39.7647 27.1644 39.7314 27.1644H39.7281Z" fill="#9B9A94"/>
<path d="M41.03 30.2061C41 30.2061 40.9767 30.1863 40.9667 30.1534C40.9567 30.1138 40.9767 30.0743 41.01 30.0644C41.9023 29.7843 42.6948 29.0164 43.434 27.7213C44.4695 25.9022 45.0721 23.8062 45.1753 21.6543C45.1753 21.6147 45.2086 21.5851 45.2419 21.5851C45.2786 21.5851 45.3052 21.6213 45.3019 21.6609C45.1987 23.8359 44.5893 25.9582 43.5405 27.7971C42.7847 29.1252 41.9656 29.9095 41.0433 30.2028C41.0366 30.2028 41.03 30.2028 41.0266 30.2028L41.03 30.2061Z" fill="#9B9A94"/>
<path d="M50.9889 44.0768C50.9623 44.0768 50.9356 44.0571 50.9257 44.0241C49.6637 39.2852 45.8346 36.5137 43.6637 35.2845C43.6304 35.268 43.6204 35.2218 43.6338 35.1889C43.6504 35.1526 43.6904 35.1395 43.7203 35.1559C45.9112 36.3983 49.7736 39.1962 51.0489 43.9846C51.0588 44.0241 51.0389 44.0637 51.0056 44.0736C50.9989 44.0736 50.9923 44.0736 50.9856 44.0736L50.9889 44.0768Z" fill="#9B9A94"/>
<path d="M18.2853 44.3834H23.0067L26.02 21.4468H21.2953L18.2853 44.3834Z" fill="#C6C6C4"/>
<path d="M52.8236 21.4468H15.2986V21.8752H52.8236V21.4468Z" fill="#262420"/>
<path d="M52.8236 43.955H15.2986V44.3834H52.8236V43.955Z" fill="#9B9A94"/>
<path d="M55.7302 42.1648L49.4123 39.5989C49.1911 39.5091 48.9383 39.6137 48.8475 39.8326L43.4553 52.8388C43.3646 53.0577 43.4703 53.308 43.6915 53.3978L50.0094 55.9637C50.2305 56.0535 50.4834 55.9489 50.5741 55.73L55.9663 42.7238C56.0571 42.5049 55.9513 42.2546 55.7302 42.1648Z" fill="#C2C2C0"/>
<path d="M55.3074 42.4423L53.7158 41.7964C53.5959 41.747 53.4561 41.803 53.4062 41.9249C53.3562 42.0436 53.2197 42.1029 53.0965 42.0534L51.3684 41.3515C51.2486 41.3021 51.1886 41.167 51.2386 41.045C51.2885 40.9264 51.2319 40.788 51.1087 40.7385L49.5171 40.0926C49.3074 40.0069 49.071 40.1058 48.9844 40.3134L43.8901 52.599C43.8035 52.8066 43.9034 53.0406 44.1132 53.1263L49.9001 55.476C50.1098 55.5617 50.3462 55.4628 50.4328 55.2552L55.5271 42.9696C55.6137 42.762 55.5138 42.528 55.3041 42.4423H55.3074Z" fill="#3A3832"/>
<path d="M52.96 41.7996L51.5782 41.2394C51.5449 41.2262 51.5316 41.19 51.5449 41.1603C51.5582 41.1274 51.5948 41.1142 51.6248 41.1274L53.0066 41.6876C53.0399 41.7008 53.0532 41.737 53.0399 41.7667C53.0266 41.7996 52.99 41.8128 52.96 41.7996Z" fill="#3A3832"/>
<path d="M55.3074 42.4423L54.5049 42.1161L47.1764 54.3687L49.9034 55.476C50.1131 55.5617 50.3495 55.4628 50.4361 55.2552L55.5304 42.9696C55.617 42.762 55.5171 42.528 55.3074 42.4423Z" fill="#C6C6C4"/>
</g>
<defs>
<filter id="filter0_d_542_6899" x="0" y="0" width="69" height="69" filterUnits="userSpaceOnUse" color-interpolation-filters="sRGB">
<feFlood flood-opacity="0" result="BackgroundImageFix"/>
<feColorMatrix in="SourceAlpha" type="matrix" values="0 0 0 0 0 0 0 0 0 0 0 0 0 0 0 0 0 0 127 0" result="hardAlpha"/>
<feOffset/>
<feGaussianBlur stdDeviation="2"/>
<feComposite in2="hardAlpha" operator="out"/>
<feColorMatrix type="matrix" values="0 0 0 0 0 0 0 0 0 0 0 0 0 0 0 0 0 0 0.25 0"/>
<feBlend mode="normal" in2="BackgroundImageFix" result="effect1_dropShadow_542_6899"/>
<feBlend mode="normal" in="SourceGraphic" in2="effect1_dropShadow_542_6899" result="shape"/>
</filter>
<clipPath id="clip0_542_6899">
<rect width="42" height="36" fill="white" transform="translate(14 20)"/>
</clipPath>
</defs>
</svg>
