<svg width="69" height="69" viewBox="0 0 69 69" fill="none" xmlns="http://www.w3.org/2000/svg">
<g filter="url(#filter0_d_542_6957)">
<circle cx="34.5" cy="34.5" r="30.5" fill="white"/>
</g>
<path d="M30.4528 52.9996H45.6358C45.9267 52.9996 46.2057 52.8841 46.4114 52.6784C46.6171 52.4727 46.7326 52.1937 46.7326 51.9029V27.8927H30.4528" fill="#B2B2B2"/>
<path d="M39.3327 27.8927V52.9996H24.1496C24.0012 53.0068 23.8529 52.9837 23.7137 52.9318C23.5744 52.8799 23.4472 52.8003 23.3397 52.6977C23.2322 52.5951 23.1466 52.4718 23.0882 52.3352C23.0298 52.1985 22.9998 52.0514 23 51.9029V27.8927H39.3327Z" fill="#989897"/>
<path d="M46.7327 27.8399H23.0529L26.0128 20.4399H43.7727L46.7327 27.8399Z" fill="#B2B2B2"/>
<path d="M38.1963 27.8927V52.9996H24.1496C24.0012 53.0068 23.8529 52.9837 23.7137 52.9318C23.5744 52.8799 23.4472 52.8003 23.3397 52.6977C23.2322 52.5951 23.1466 52.4718 23.0882 52.3352C23.0298 52.1985 22.9998 52.0514 23 51.9029V27.8927H38.1963Z" fill="#B2B2B2"/>
<path d="M44.8034 24.021L44.7902 27.8399H38.1963L41.6452 20.4399H43.5216L43.8123 21.2592L44.8034 24.021Z" fill="#989897"/>
<path d="M46.7326 27.8399H39.3326L42.8212 20.4399H43.7726L44.103 21.2592L45.2129 24.021L46.7326 27.8399Z" fill="#B2B2B2"/>
<path d="M43.7727 17.0968V20.44H26.0128V17.0968C26.0128 16.8059 26.1284 16.5269 26.3341 16.3212C26.5397 16.1156 26.8187 16 27.1096 16H42.6759C42.9668 16 43.2457 16.1156 43.4514 16.3212C43.6571 16.5269 43.7727 16.8059 43.7727 17.0968Z" fill="#989897"/>
<path d="M43.7727 17.0968V19.9643H26.0128V17.0968C26.0128 16.8059 26.1284 16.5269 26.3341 16.3212C26.5397 16.1156 26.8187 16 27.1096 16H42.6759C42.9668 16 43.2457 16.1156 43.4514 16.3212C43.6571 16.5269 43.7727 16.8059 43.7727 17.0968Z" fill="#B2B2B2"/>
<defs>
<filter id="filter0_d_542_6957" x="0" y="0" width="69" height="69" filterUnits="userSpaceOnUse" color-interpolation-filters="sRGB">
<feFlood flood-opacity="0" result="BackgroundImageFix"/>
<feColorMatrix in="SourceAlpha" type="matrix" values="0 0 0 0 0 0 0 0 0 0 0 0 0 0 0 0 0 0 127 0" result="hardAlpha"/>
<feOffset/>
<feGaussianBlur stdDeviation="2"/>
<feComposite in2="hardAlpha" operator="out"/>
<feColorMatrix type="matrix" values="0 0 0 0 0 0 0 0 0 0 0 0 0 0 0 0 0 0 0.25 0"/>
<feBlend mode="normal" in2="BackgroundImageFix" result="effect1_dropShadow_542_6957"/>
<feBlend mode="normal" in="SourceGraphic" in2="effect1_dropShadow_542_6957" result="shape"/>
</filter>
</defs>
</svg>
