<svg width="69" height="69" viewBox="0 0 69 69" fill="none" xmlns="http://www.w3.org/2000/svg">
<g filter="url(#filter0_d_542_6886)">
<circle cx="34.5" cy="34.5" r="30.5" fill="white"/>
</g>
<g clip-path="url(#clip0_542_6886)">
<path d="M34.5 24.8142V14.8076H32.3069L31.5963 26.7503C31.2969 26.9654 30.9975 27.1842 30.6981 27.4067C29.0172 28.6715 28 30.7447 28 32.7104V53.9587C28 54.4891 28.1912 55.0231 28.5014 55.4793C28.8765 54.9267 29.432 54.4928 30.0633 54.3741C31.5314 54.0996 33.0139 53.9587 34.5 53.9587V24.8142Z" fill="#59910B"/>
<path d="M30.0632 54.3741C29.432 54.4965 28.8801 54.9267 28.5013 55.4793C28.743 55.8354 29.0568 56.1321 29.4175 56.3361C29.6195 56.4511 29.8324 56.5438 30.0596 56.5883C31.5277 56.8628 33.0102 57.0037 34.4963 57.0037V53.9624C33.0102 53.9624 31.5277 54.0996 30.0596 54.3778L30.0632 54.3741Z" fill="#416B00"/>
<path d="M41 32.7104C41 30.7447 39.9828 28.6715 38.3019 27.4067C38.0025 27.1842 37.7031 26.9654 37.4037 26.7503L36.6931 14.8076H34.5V24.8179V53.9587C35.9861 53.9587 37.4686 54.0959 38.9367 54.3741C39.568 54.4965 40.1199 54.9267 40.4986 55.4793C40.8088 55.0231 41 54.4891 41 53.9587V32.7104Z" fill="#416B00"/>
<path d="M38.9367 54.3741C37.4686 54.0997 35.9861 53.9587 34.5 53.9587V57C35.9861 57 37.4686 56.8628 38.9367 56.5846C39.164 56.5401 39.3768 56.4474 39.5788 56.3324C39.9395 56.1284 40.2569 55.8317 40.495 55.4757C40.1199 54.9231 39.5644 54.4891 38.9331 54.3704L38.9367 54.3741Z" fill="#2E4900"/>
<path d="M32.5197 12C32.1157 12 31.7875 12.3264 31.7875 12.7344V14.7409C31.7875 15.1451 32.1157 15.4752 32.5197 15.4752H34.5V12H32.5197Z" fill="#729F02"/>
<path d="M36.4081 12H34.4963V15.4715H36.4081C36.7977 15.4715 37.1151 15.1451 37.1151 14.7372V12.7344C37.1151 12.3301 36.7977 12 36.4081 12Z" fill="#59910B"/>
<path d="M32.967 16.5397L32.2528 26.5648H33.1365L33.3205 16.5397H32.967Z" fill="#92D205"/>
<g style="mix-blend-mode:screen">
<path d="M31.773 27.4735C31.773 27.4735 30.0019 29.1685 29.5943 30.5259C29.1867 31.8834 29.4464 33.5857 29.4464 33.5857C29.4464 33.5857 30.0416 34.6873 30.7774 33.7007C31.2427 33.0776 31.1237 31.8722 31.0335 30.9302C30.9758 30.3219 31.452 29.0757 31.7658 28.5602C32.1445 27.9334 32.4836 27.199 31.7694 27.4735H31.773Z" fill="#92D205"/>
</g>
</g>
<defs>
<filter id="filter0_d_542_6886" x="0" y="0" width="69" height="69" filterUnits="userSpaceOnUse" color-interpolation-filters="sRGB">
<feFlood flood-opacity="0" result="BackgroundImageFix"/>
<feColorMatrix in="SourceAlpha" type="matrix" values="0 0 0 0 0 0 0 0 0 0 0 0 0 0 0 0 0 0 127 0" result="hardAlpha"/>
<feOffset/>
<feGaussianBlur stdDeviation="2"/>
<feComposite in2="hardAlpha" operator="out"/>
<feColorMatrix type="matrix" values="0 0 0 0 0 0 0 0 0 0 0 0 0 0 0 0 0 0 0.25 0"/>
<feBlend mode="normal" in2="BackgroundImageFix" result="effect1_dropShadow_542_6886"/>
<feBlend mode="normal" in="SourceGraphic" in2="effect1_dropShadow_542_6886" result="shape"/>
</filter>
<clipPath id="clip0_542_6886">
<rect width="13" height="45" fill="white" transform="translate(28 12)"/>
</clipPath>
</defs>
</svg>
