<svg width="69" height="69" viewBox="0 0 69 69" fill="none" xmlns="http://www.w3.org/2000/svg">
<g filter="url(#filter0_d_542_6907)">
<circle cx="34.5" cy="34.5" r="30.5" fill="white"/>
</g>
<g clip-path="url(#clip0_542_6907)">
<path d="M47.3398 45.767C47.3398 46.5393 46.9732 47.2227 46.4021 47.6498H48.1365C49.2328 47.6498 50.1176 46.7529 50.1176 45.6459V42.5244H47.3398V45.767Z" fill="#C6B289"/>
<path d="M50.1175 27.561V19.8231C50.1175 18.7161 49.2327 17.8263 48.1364 17.8263H47.3397V27.5646H50.1175V27.561Z" fill="#C6B289"/>
<path d="M47.3397 45.767V42.5244H34.3637V44.2827C34.3637 44.6209 34.0923 44.8949 33.7574 44.8949C33.4225 44.8949 33.151 44.6209 33.151 44.2827V42.5244H31.2827V45.6459C31.2827 46.7529 32.1922 47.6498 33.2885 47.6498H46.4056C46.9731 47.2227 47.3433 46.5393 47.3433 45.767H47.3397Z" fill="#E0CE9F"/>
<path d="M33.151 25.0126C33.151 24.6744 33.4225 24.4004 33.7574 24.4004C34.0923 24.4004 34.3637 24.6744 34.3637 25.0126V27.5611H47.3397V17.8228H33.2885C32.1922 17.8228 31.2827 18.7126 31.2827 19.8195V27.5611H33.151V25.0126Z" fill="#E0CE9F"/>
<path d="M33.151 44.2863C33.151 44.6244 33.4224 44.8985 33.7573 44.8985C34.0922 44.8985 34.3636 44.6244 34.3636 44.2863V42.528H33.151V44.2863Z" fill="#E9DAB8"/>
<path d="M34.3636 25.0126C34.3636 24.6745 34.0922 24.4004 33.7573 24.4004C33.4224 24.4004 33.151 24.6745 33.151 25.0126V27.5611H34.3636V25.0126Z" fill="#E9DAB8"/>
<path d="M50.1176 27.5682H47.3503V42.5209H50.1176V27.5682Z" fill="#DACCAD"/>
<path d="M47.3397 27.561H34.3636V42.5244H47.3397V27.561Z" fill="#E9DAB8"/>
<path d="M33.151 27.561H31.2827V42.5244H33.151V27.561Z" fill="#E9DAB8"/>
<path d="M34.3673 27.5682H33.1405V42.5209H34.3673V27.5682Z" fill="#F1E8D6"/>
<path d="M50.0188 14H48.0483C48.4889 14.3808 48.7462 14.9788 48.7462 15.6266V20.4175C48.7462 21.2147 48.3444 21.8661 47.7098 22.2968H50.0153C51.1116 22.2968 51.9964 21.3927 51.9964 20.2858V16.0039C51.9964 14.8969 51.1116 14 50.0153 14H50.0188Z" fill="#CB922E"/>
<path d="M48.7463 20.4175V15.6266C48.7463 14.9824 48.4889 14.3844 48.0483 14H31.399C30.3027 14 29.4038 14.8969 29.4038 16.0039V20.2858C29.4038 21.3927 30.3062 22.2968 31.399 22.2968H47.7134C48.3444 21.8661 48.7498 21.2112 48.7498 20.4175H48.7463Z" fill="#E4AA32"/>
<path d="M32.305 15.6693H32.2592C31.5466 15.6693 30.969 16.2526 30.969 16.972V19.3781C30.969 20.0976 31.5466 20.6808 32.2592 20.6808H32.305C33.0176 20.6808 33.5952 20.0976 33.5952 19.3781V16.972C33.5952 16.2526 33.0176 15.6693 32.305 15.6693Z" fill="#FFC769"/>
<path d="M43.8851 37.1925H20.6791C19.1995 37.1925 18 38.4036 18 39.8976V53.2949C18 54.7889 19.1995 56 20.6791 56H43.8851C45.3648 56 46.5642 54.7889 46.5642 53.2949V39.8976C46.5642 38.4036 45.3648 37.1925 43.8851 37.1925Z" fill="#B2B2B2"/>
<path d="M44.7664 46.6069C44.7664 46.9273 44.509 47.1907 44.1882 47.1907H20.3583C20.041 47.1907 19.7802 46.9308 19.7802 46.6069C19.7802 46.2866 20.0375 46.0232 20.3583 46.0232H44.1918C44.509 46.0232 44.7699 46.283 44.7699 46.6069H44.7664Z" fill="#989897"/>
<path d="M29.9008 42.859H29.8973C30.0524 42.5849 30.137 42.261 30.137 41.9193C30.137 40.8765 29.3156 40.0436 28.2863 40.0436H22.981C21.9516 40.0436 21.1056 40.88 21.1056 41.9193C21.1056 42.261 21.1972 42.5814 21.3559 42.8554V42.859C21.6802 43.4249 22.2865 43.8058 22.981 43.8058H28.2828C28.9737 43.8058 29.58 43.4249 29.9008 42.859Z" fill="#3791CB"/>
<path d="M29.9008 42.8624C29.5906 43.019 29.2416 43.1151 28.8715 43.1151H25.6107V43.8021H28.2828C28.9737 43.8021 29.58 43.4284 29.9008 42.8624Z" fill="#A43535"/>
<path d="M30.1335 41.9157C30.1335 40.8764 29.3121 40.0399 28.2828 40.0399H25.6107V43.1187H28.8715C29.2416 43.1187 29.5871 43.0226 29.8938 42.8625C30.0489 42.5848 30.1335 42.2574 30.1335 41.9157Z" fill="#BC3D3D"/>
<path d="M22.3922 43.1187C22.0186 43.1187 21.666 43.0226 21.3558 42.8624C21.6801 43.4284 22.2865 43.8056 22.9774 43.8056H25.6072V43.1187H22.3922Z" fill="#D2D2D2"/>
<path d="M25.6107 43.1187V40.0399H22.981C21.9516 40.0399 21.1056 40.8764 21.1056 41.9157C21.1056 42.2574 21.1972 42.5848 21.3559 42.8589C21.6661 43.0191 22.0221 43.1187 22.3958 43.1187H25.6142H25.6107Z" fill="#E9E9E7"/>
<path d="M27.7857 40.7482H28.096H28.0995C28.0995 40.7482 28.3286 40.7446 28.6001 40.8265C28.949 40.9333 29.2064 41.1326 29.365 41.4173C29.3756 41.4387 29.3897 41.4529 29.4073 41.4672C29.4531 41.5028 29.5166 41.5099 29.573 41.4778C29.6188 41.4529 29.647 41.4031 29.6505 41.3533C29.6505 41.3533 29.6505 41.3461 29.6505 41.3426C29.6505 41.3177 29.6435 41.2928 29.6329 41.2678C29.4355 40.9119 29.1077 40.6663 28.6811 40.5382C28.378 40.4492 28.1312 40.4599 28.096 40.4599H25.6143V40.7482H27.7893H27.7857Z" fill="#D35959"/>
<path d="M21.8423 41.421C22.001 41.1362 22.2583 40.9369 22.6073 40.8301C22.8787 40.7483 23.1043 40.7518 23.1079 40.7518C23.1079 40.7518 23.1079 40.7518 23.1149 40.7518H25.6142V40.4635H23.1184C23.0867 40.4635 22.8364 40.4529 22.5333 40.5418C22.1067 40.67 21.7789 40.9227 21.5815 41.2751C21.5674 41.3 21.5638 41.3213 21.5638 41.3462C21.5638 41.3462 21.5638 41.3534 21.5638 41.3569C21.5638 41.4139 21.5956 41.453 21.6414 41.4779C21.6943 41.5064 21.7577 41.4993 21.8071 41.4673C21.8247 41.453 21.8388 41.4388 21.8494 41.4174L21.8423 41.421Z" fill="white"/>
<path d="M29.9008 52.2236H29.8973C30.0524 51.9496 30.137 51.6257 30.137 51.284C30.137 50.2411 29.3156 49.4082 28.2863 49.4082H22.981C21.9516 49.4082 21.1056 50.2446 21.1056 51.284C21.1056 51.6257 21.1972 51.946 21.3559 52.2201C21.3559 52.2201 21.3559 52.2236 21.3559 52.2272C21.6802 52.7931 22.2865 53.174 22.981 53.174H28.2828C28.9772 53.174 29.58 52.7931 29.9008 52.2272V52.2236Z" fill="#3791CB"/>
<path d="M29.9008 52.2306C29.5906 52.3872 29.2416 52.4833 28.8715 52.4833H25.6107V53.1703H28.2828C28.9772 53.1703 29.58 52.7965 29.9008 52.2306Z" fill="#A43535"/>
<path d="M30.1335 51.2803C30.1335 50.241 29.3121 49.4045 28.2828 49.4045H25.6107V52.4834H28.8715C29.2416 52.4834 29.5871 52.3873 29.8938 52.2271C30.0489 51.9495 30.1335 51.622 30.1335 51.2803Z" fill="#BC3D3D"/>
<path d="M22.3922 52.4833C22.0186 52.4833 21.666 52.3872 21.3558 52.2271C21.6801 52.793 22.2865 53.1703 22.9774 53.1703H25.6072V52.4833H22.3922Z" fill="#D2D2D2"/>
<path d="M25.6107 52.4834V49.4045H22.981C21.9516 49.4045 21.1056 50.241 21.1056 51.2803C21.1056 51.622 21.1972 51.9495 21.3559 52.2235C21.6661 52.3837 22.0221 52.4834 22.3958 52.4834H25.6142H25.6107Z" fill="#E9E9E7"/>
<path d="M27.7857 50.1128H28.096H28.0995C28.0995 50.1128 28.3286 50.1092 28.6001 50.1911C28.949 50.2979 29.2064 50.4972 29.365 50.782C29.3756 50.8033 29.3897 50.8175 29.4073 50.8318C29.4531 50.8674 29.5166 50.8745 29.573 50.8425C29.6188 50.8175 29.647 50.7677 29.6505 50.7179C29.6505 50.7179 29.6505 50.7108 29.6505 50.7072C29.6505 50.6823 29.6435 50.6574 29.6329 50.6325C29.4355 50.2765 29.1077 50.0309 28.6811 49.9028C28.378 49.8138 28.1312 49.8245 28.096 49.8245H25.6143V50.1128H27.7893H27.7857Z" fill="#D35959"/>
<path d="M21.8423 50.7856C22.001 50.5009 22.2583 50.3015 22.6073 50.1948C22.8787 50.1129 23.1043 50.1165 23.1079 50.1165C23.1079 50.1165 23.1079 50.1165 23.1149 50.1165H25.6142V49.8282H23.1184C23.0867 49.8282 22.8364 49.8175 22.5333 49.9065C22.1067 50.0346 21.7789 50.2873 21.5815 50.6397C21.5674 50.6646 21.5638 50.686 21.5638 50.7109C21.5638 50.7109 21.5638 50.718 21.5638 50.7215C21.5638 50.7785 21.5956 50.8176 21.6414 50.8426C21.6943 50.871 21.7577 50.8639 21.8071 50.8319C21.8247 50.8177 21.8388 50.8034 21.8494 50.7821L21.8423 50.7856Z" fill="white"/>
<path d="M43.2082 42.859H43.2047C43.3598 42.5849 43.4444 42.261 43.4444 41.9193C43.4444 40.8765 42.623 40.0436 41.5937 40.0436H36.2919C35.2625 40.0436 34.4165 40.88 34.4165 41.9193C34.4165 42.261 34.5082 42.5814 34.6668 42.8554V42.859C34.9911 43.4249 35.5974 43.8058 36.2919 43.8058H41.5937C42.2846 43.8058 42.8909 43.4249 43.2117 42.859H43.2082Z" fill="#3791CB"/>
<path d="M43.2082 42.8624C42.898 43.019 42.549 43.1151 42.1788 43.1151H38.9181V43.8021H41.5901C42.2811 43.8021 42.8874 43.4284 43.2082 42.8624Z" fill="#A43535"/>
<path d="M43.4408 41.9157C43.4408 40.8764 42.6195 40.0399 41.5901 40.0399H38.9181V43.1187H42.1788C42.549 43.1187 42.8945 43.0226 43.2011 42.8625C43.3562 42.5848 43.4408 42.2574 43.4408 41.9157Z" fill="#BC3D3D"/>
<path d="M35.6996 43.1187C35.3259 43.1187 34.9734 43.0226 34.6632 42.8624C34.9875 43.4284 35.5938 43.8056 36.2848 43.8056H38.9145V43.1187H35.6961H35.6996Z" fill="#D2D2D2"/>
<path d="M38.9181 43.1187V40.0399H36.2883C35.259 40.0399 34.413 40.8764 34.413 41.9157C34.413 42.2574 34.5046 42.5848 34.6632 42.8589C34.9735 43.0191 35.3295 43.1187 35.7032 43.1187H38.9216H38.9181Z" fill="#E9E9E7"/>
<path d="M41.0931 40.7482H41.4033H41.4069C41.4069 40.7482 41.636 40.7446 41.9074 40.8265C42.2564 40.9333 42.5138 41.1326 42.6724 41.4173C42.683 41.4387 42.6971 41.4529 42.7147 41.4672C42.7605 41.5028 42.824 41.5099 42.8804 41.4778C42.9262 41.4529 42.9544 41.4031 42.9579 41.3533C42.9579 41.3533 42.9579 41.3461 42.9579 41.3426C42.9579 41.3177 42.9509 41.2928 42.9403 41.2678C42.7429 40.9119 42.415 40.6663 41.9885 40.5382C41.6889 40.4492 41.4386 40.4599 41.4033 40.4599H38.9216V40.7482H41.0966H41.0931Z" fill="#D35959"/>
<path d="M35.1532 41.421C35.3119 41.1362 35.5692 40.9369 35.9182 40.8301C36.1896 40.7483 36.4152 40.7518 36.4188 40.7518C36.4188 40.7518 36.4188 40.7518 36.4258 40.7518H38.9251V40.4635H36.4293C36.3976 40.4635 36.1473 40.4529 35.8442 40.5418C35.4176 40.67 35.0898 40.9227 34.8924 41.2751C34.8783 41.3 34.8748 41.3213 34.8748 41.3462C34.8748 41.3462 34.8748 41.3534 34.8748 41.3569C34.8748 41.4139 34.9065 41.453 34.9523 41.4779C35.0052 41.5064 35.0686 41.4993 35.118 41.4673C35.1356 41.453 35.1497 41.4388 35.1603 41.4174L35.1532 41.421Z" fill="white"/>
<path d="M43.2082 52.2236H43.2047C43.3598 51.9496 43.4444 51.6257 43.4444 51.284C43.4444 50.2411 42.623 49.4082 41.5937 49.4082H36.2919C35.2625 49.4082 34.4165 50.2446 34.4165 51.284C34.4165 51.6257 34.5082 51.946 34.6668 52.2201C34.6668 52.2201 34.6668 52.2236 34.6668 52.2272C34.9911 52.7931 35.5974 53.174 36.2919 53.174H41.5937C42.2846 53.174 42.8909 52.7931 43.2117 52.2272L43.2082 52.2236Z" fill="#3791CB"/>
<path d="M43.2082 52.2306C42.898 52.3872 42.549 52.4833 42.1788 52.4833H38.9181V53.1703H41.5901C42.2811 53.1703 42.8874 52.7965 43.2082 52.2306Z" fill="#A43535"/>
<path d="M43.4408 51.2803C43.4408 50.241 42.6195 49.4045 41.5901 49.4045H38.9181V52.4834H42.1788C42.549 52.4834 42.8945 52.3873 43.2011 52.2271C43.3562 51.9495 43.4408 51.622 43.4408 51.2803Z" fill="#BC3D3D"/>
<path d="M35.6996 52.4833C35.3259 52.4833 34.9734 52.3872 34.6632 52.2271C34.9875 52.793 35.5938 53.1703 36.2848 53.1703H38.9145V52.4833H35.6961H35.6996Z" fill="#D2D2D2"/>
<path d="M38.9181 52.4834V49.4045H36.2883C35.259 49.4045 34.413 50.241 34.413 51.2803C34.413 51.622 34.5046 51.9495 34.6632 52.2235C34.9735 52.3837 35.3295 52.4834 35.7032 52.4834H38.9216H38.9181Z" fill="#E9E9E7"/>
<path d="M41.0931 50.1128H41.4033H41.4069C41.4069 50.1128 41.636 50.1092 41.9074 50.1911C42.2564 50.2979 42.5138 50.4972 42.6724 50.782C42.683 50.8033 42.6971 50.8175 42.7147 50.8318C42.7605 50.8674 42.824 50.8745 42.8804 50.8425C42.9262 50.8175 42.9544 50.7677 42.9579 50.7179C42.9579 50.7179 42.9579 50.7108 42.9579 50.7072C42.9579 50.6823 42.9509 50.6574 42.9403 50.6325C42.7429 50.2765 42.415 50.0309 41.9885 49.9028C41.6889 49.8138 41.4386 49.8245 41.4033 49.8245H38.9216V50.1128H41.0966H41.0931Z" fill="#D35959"/>
<path d="M35.1532 50.7856C35.3119 50.5009 35.5692 50.3015 35.9182 50.1948C36.1896 50.1129 36.4152 50.1165 36.4188 50.1165C36.4188 50.1165 36.4188 50.1165 36.4258 50.1165H38.9251V49.8282H36.4293C36.3976 49.8282 36.1473 49.8175 35.8442 49.9065C35.4176 50.0346 35.0898 50.2873 34.8924 50.6397C34.8783 50.6646 34.8748 50.686 34.8748 50.7109C34.8748 50.7109 34.8748 50.718 34.8748 50.7215C34.8748 50.7785 34.9065 50.8176 34.9523 50.8426C35.0052 50.871 35.0686 50.8639 35.118 50.8319C35.1356 50.8177 35.1497 50.8034 35.1603 50.7821L35.1532 50.7856Z" fill="white"/>
</g>
<defs>
<filter id="filter0_d_542_6907" x="0" y="0" width="69" height="69" filterUnits="userSpaceOnUse" color-interpolation-filters="sRGB">
<feFlood flood-opacity="0" result="BackgroundImageFix"/>
<feColorMatrix in="SourceAlpha" type="matrix" values="0 0 0 0 0 0 0 0 0 0 0 0 0 0 0 0 0 0 127 0" result="hardAlpha"/>
<feOffset/>
<feGaussianBlur stdDeviation="2"/>
<feComposite in2="hardAlpha" operator="out"/>
<feColorMatrix type="matrix" values="0 0 0 0 0 0 0 0 0 0 0 0 0 0 0 0 0 0 0.25 0"/>
<feBlend mode="normal" in2="BackgroundImageFix" result="effect1_dropShadow_542_6907"/>
<feBlend mode="normal" in="SourceGraphic" in2="effect1_dropShadow_542_6907" result="shape"/>
</filter>
<clipPath id="clip0_542_6907">
<rect width="34" height="42" fill="white" transform="translate(18 14)"/>
</clipPath>
</defs>
</svg>
