<svg width="69" height="69" viewBox="0 0 69 69" fill="none" xmlns="http://www.w3.org/2000/svg">
<g filter="url(#filter0_d_542_6900)">
<circle cx="34.5" cy="34.5" r="30.5" fill="white"/>
</g>
<path d="M25.9418 19.9985H27.5336L29.3514 18.3609C29.8555 17.9057 29.5806 17.0716 28.9054 17.0044H28.884C28.6273 16.9769 28.3737 17.0807 28.2088 17.2793L25.9418 19.9985Z" fill="#ADA67D"/>
<path d="M24.7472 24.0191C22.1074 24.013 19.4188 24.1871 16 24.5721V49.3012C18.9941 49.9062 21.8691 50.2117 24.7472 50.2117V24.0191Z" fill="#D9DAC1"/>
<path d="M24.7471 24.0192V50.2118C27.6251 50.2118 30.5031 49.9093 33.4942 49.3013V24.5722C30.1396 24.2208 27.4723 24.0253 24.7471 24.0192Z" fill="#D5D3B5"/>
<path d="M24.7471 50.2117V52.9553C27.1271 52.9553 29.5071 52.7018 31.7436 52.1946C32.1683 51.2169 32.7213 50.2514 33.4942 49.3043C30.5001 49.9093 27.6251 50.2148 24.7471 50.2148V50.2117Z" fill="#ADA67D"/>
<path d="M16 49.3014C16.773 50.2485 17.326 51.214 17.7507 52.1917C19.9871 52.6988 22.3671 52.9524 24.7472 52.9524V50.2088C21.8691 50.2088 18.9911 49.9063 16 49.2983V49.3014Z" fill="#CEC9A7"/>
<path d="M24.7471 20.9791V24.0191C27.4723 24.0252 30.1426 24.2207 33.4942 24.5721C32.8435 23.5333 32.1896 22.4793 31.5328 21.4191C29.1405 21.1105 26.9743 20.97 24.7471 20.9822V20.9791Z" fill="#CEC9A7"/>
<path d="M24.7472 20.9791C22.6238 20.9913 20.4454 21.138 17.9645 21.413C17.3076 22.4731 16.6508 23.5303 16 24.5721C19.4188 24.1871 22.1105 24.016 24.7472 24.0191V20.9791Z" fill="#D5D3B5"/>
<path d="M31.5328 21.4161C31.5542 21.4161 31.5755 21.4222 31.6 21.4253V19.9435C29.2963 19.6471 26.9957 19.5066 24.7471 19.5035V20.9792C26.9743 20.967 29.1405 21.1075 31.5328 21.4161Z" fill="#D9DAC1"/>
<path d="M24.7471 19.5036C22.4007 19.5005 20.1184 19.6472 17.9645 19.9313V21.4131C20.4453 21.1381 22.6237 20.9915 24.7471 20.9793V19.5036Z" fill="#F4F4E4"/>
<path d="M20.6409 21.1595L19.5746 24.227L21.1725 24.12L21.4902 21.0984L20.6409 21.1595Z" fill="#FFFEE9"/>
<path d="M24.7471 26.891V46.5759C27.6679 46.5759 30.5887 46.414 33.4942 46.0932V27.3707C30.5856 27.0499 27.6679 26.8879 24.7471 26.8879V26.891Z" fill="#FF4E1F"/>
<path d="M16 27.3708V46.0933C18.9086 46.4141 21.8294 46.576 24.7472 46.576V26.8911C21.8263 26.8911 18.9055 27.05 16 27.3738V27.3708Z" fill="#FF6A4D"/>
<g style="mix-blend-mode:screen" opacity="0.5">
<path d="M21.2183 50.0528L19.5746 49.8878V24.2268L21.2183 23.6769V50.0528Z" fill="#FFFEE9"/>
</g>
<path d="M52.8218 36.4479L52.0366 36.9459L52.5315 37.7342L51.6761 38.11L52.0457 38.9624L51.1475 39.2068L51.3828 40.1051L50.4662 40.212L50.4753 40.3006L50.564 41.1347L49.6352 41.1041L49.6321 41.1683L49.5954 42.0329L48.6819 41.8649L48.5078 42.7754L47.6309 42.4729L47.3193 43.3497L46.4974 42.9159L46.0575 43.7347L45.3089 43.1848L44.7559 43.9333L44.096 43.2764L43.4361 43.9333L42.877 43.1848L42.1284 43.7347L41.6915 42.9159L40.8666 43.3497L40.558 42.4729L39.6781 42.7754L39.504 41.8649L38.5905 42.0329L38.5568 41.1683V41.1041L37.6281 41.1347L37.7167 40.3006L37.7258 40.212L36.8031 40.102L37.0384 39.2038L36.1401 38.9624L36.5098 38.11L35.6605 37.7342L36.1493 36.9459L35.3672 36.4479L35.9691 35.7422L35.2725 35.1311L35.9691 34.5201L35.3672 33.8174L36.1493 33.3194L35.6605 32.5281L36.5098 32.1553L36.1463 31.3029L37.0384 31.0554L36.8031 30.1572L37.7258 30.0533L37.6281 29.1306L38.5568 29.1612L38.5905 28.2324L39.5101 28.4004L39.6842 27.4869L40.5641 27.7924L40.8697 26.9125L41.6946 27.3494L42.1284 26.5245L42.877 27.0745L43.4361 26.329L44.096 26.9828L44.7559 26.329L45.3089 27.0745L46.0636 26.5245L46.4974 27.3494L47.3193 26.9125L47.6309 27.7924L48.5078 27.4869L48.6819 28.4004L49.5954 28.2324L49.6352 29.1612L50.564 29.1306L50.4662 30.0533L51.3889 30.1572L51.1475 31.0616L52.0457 31.3029L51.6761 32.1553L52.5315 32.5281L52.0366 33.3194L52.8218 33.8174L52.2168 34.5201L52.9195 35.1311L52.2168 35.7422L52.8218 36.4479Z" fill="#C2C2C0"/>
<path d="M44.0929 27.7709C40.0355 27.7709 36.7298 31.0736 36.7298 35.134C36.7298 39.1945 40.0325 42.4972 44.0929 42.4972C48.1533 42.4972 51.456 39.1945 51.456 35.134C51.456 31.0736 48.1533 27.7709 44.0929 27.7709ZM44.0929 42.7447C39.895 42.7447 36.4823 39.3289 36.4823 35.134C36.4823 30.9392 39.8981 27.5234 44.0929 27.5234C48.2878 27.5234 51.7035 30.9392 51.7035 35.134C51.7035 39.3289 48.2908 42.7447 44.0929 42.7447Z" fill="#DDDDDC"/>
<path d="M40.5641 40.3006H39.1832C37.8969 38.9562 37.1086 37.1384 37.1086 35.1311C37.1086 31.7336 39.3726 28.8648 42.4737 27.9482C42.9961 27.829 43.5399 27.7679 44.096 27.7679C44.5757 27.7679 45.0462 27.8138 45.5014 27.9024C44.5359 28.2934 43.653 28.8434 42.8831 29.5186C40.2983 30.0777 38.3552 32.3814 38.3552 35.1311C38.3552 36.784 39.0579 38.278 40.1822 39.3259C40.2922 39.659 40.4175 39.9828 40.5641 40.3006ZM40.0325 38.8218C39.1465 37.8472 38.6057 36.5518 38.6057 35.1341C38.6057 32.6624 40.2464 30.5665 42.4981 29.8791C40.7902 31.5564 39.73 33.8876 39.73 36.4723C39.73 37.285 39.837 38.0733 40.0356 38.8218" fill="#CECECC"/>
<path d="M42.4707 27.9513C43.1429 27.7527 43.8547 27.6458 44.591 27.6458C45.0279 27.6458 45.4526 27.6916 45.8712 27.7619C45.7459 27.8077 45.6207 27.8535 45.4985 27.9054C45.0432 27.8168 44.5727 27.771 44.093 27.771C43.537 27.771 42.9931 27.8321 42.4707 27.9513Z" fill="#E4E4E2"/>
<path d="M44.093 29.6408C41.0652 29.6408 38.6027 32.1033 38.6027 35.1311C38.6027 38.1588 41.0652 40.6213 44.093 40.6213C47.1207 40.6213 49.5832 38.1588 49.5832 35.1311C49.5832 32.1033 47.1207 29.6408 44.093 29.6408ZM44.093 40.8719C40.9277 40.8719 38.3522 38.2963 38.3522 35.1311C38.3522 31.9658 40.9277 29.3903 44.093 29.3903C47.2582 29.3903 49.8338 31.9658 49.8338 35.1311C49.8338 38.2963 47.2582 40.8719 44.093 40.8719Z" fill="#DDDDDC"/>
<path d="M44.093 31.5137C42.098 31.5137 40.4756 33.136 40.4756 35.1342C40.4756 37.1323 42.098 38.7516 44.093 38.7516C46.0881 38.7516 47.7104 37.1292 47.7104 35.1342C47.7104 33.1391 46.0881 31.5137 44.093 31.5137ZM44.093 39.0021C41.9605 39.0021 40.2251 37.2667 40.2251 35.1342C40.2251 33.0016 41.9605 31.2662 44.093 31.2662C46.2256 31.2662 47.961 33.0016 47.961 35.1342C47.961 37.2667 46.2256 39.0021 44.093 39.0021Z" fill="#DDDDDC"/>
<path d="M52.5804 41.6692V42.8668L52.1313 43.2213L52.5804 43.5757L52.1313 43.9331L52.5804 44.2875L52.1313 44.6419L52.5804 44.9963L52.1313 45.3538L52.5804 45.7052V47.4619L52.1313 47.8194L52.5804 48.1769L52.1313 48.5313L52.5804 48.8857L52.1313 49.2401L52.5804 49.5945V51.4062H35.6116V49.5945L36.0607 49.2401L35.6116 48.8857L36.0607 48.5313L35.6116 48.1769L36.0607 47.8194L35.6116 47.4619V45.7052L36.0607 45.3538L35.6116 44.9963L36.0607 44.6419L35.6116 44.2875L36.0607 43.9331L35.6116 43.5757L36.0607 43.2213L35.6116 42.8668V41.6692H52.5804Z" fill="#C2C2C0"/>
<path d="M52.5773 43.5787L52.1313 43.9331H36.0607L35.6146 43.5787H52.5773Z" fill="#A4A4A2"/>
<path d="M52.5804 43.5757V43.5788H35.6116V43.5757L36.0607 43.2213H52.1313L52.5804 43.5757Z" fill="#DDDDDC"/>
<path d="M52.5804 44.2877L52.1313 44.6421H36.0607L35.6116 44.2877H52.5804Z" fill="#A4A4A2"/>
<path d="M52.5804 44.2876H35.6116L36.0607 43.9332H52.1313L52.5804 44.2876Z" fill="#DDDDDC"/>
<path d="M52.5804 44.9965L52.1313 45.3539H36.0607L35.6116 44.9965H52.5804Z" fill="#A4A4A2"/>
<path d="M52.5804 44.9964H35.6116L36.0607 44.642H52.1313L52.5804 44.9964Z" fill="#DDDDDC"/>
<path d="M52.5804 48.177L52.1313 48.5314H36.0607L35.6116 48.177H52.5804Z" fill="#A4A4A2"/>
<path d="M52.5804 48.1769H35.6116L36.0607 47.8195H52.1313L52.5804 48.1769Z" fill="#DDDDDC"/>
<path d="M52.5804 48.8859L52.1313 49.2403H36.0607L35.6116 48.8859H52.5804Z" fill="#A4A4A2"/>
<path d="M52.5804 48.8858H35.6116L36.0607 48.5314H52.1313L52.5804 48.8858Z" fill="#DDDDDC"/>
<path d="M52.8891 52.2741H35.3031V51.4064H52.8891V52.2741Z" fill="#DDDDDC"/>
<path d="M52.5804 41.9594H39.1037V41.6692H52.5804V41.9594ZM36.6076 41.9594H35.6085V41.6692H36.6076V41.9594Z" fill="#9C9B99"/>
<path d="M52.5804 51.4063H39.1038V51.1161H52.5804V51.4063Z" fill="#9C9B99"/>
<path d="M36.6076 51.4063H35.6116V51.1161H36.6076V51.4063Z" fill="#9C9B99"/>
<path d="M50.5303 40.8016H49.1677C49.3449 40.6427 49.516 40.4747 49.6779 40.3005H50.4753L50.5303 40.8016ZM48.7858 40.8016H44.9942C45.5564 40.713 46.0941 40.5419 46.5921 40.3005H49.3357C49.1616 40.4747 48.9782 40.6427 48.7888 40.8016M43.2008 40.8016H40.8146C40.726 40.6366 40.6435 40.4716 40.5672 40.3005H41.6029C42.1009 40.5419 42.6356 40.713 43.2008 40.8016ZM39.7147 40.8016H39.4062C39.2167 40.6427 39.0334 40.4777 38.8593 40.3005H39.1831C39.3512 40.4747 39.5284 40.6427 39.7117 40.8016M39.0212 40.8016H37.6616L37.7166 40.3005H38.511C38.6729 40.4747 38.844 40.6427 39.0212 40.8016ZM44.096 40.6213C43.4452 40.6213 42.8219 40.5083 42.2445 40.3005H45.9505C45.37 40.5083 44.7467 40.6213 44.096 40.6213Z" fill="#9C9B99"/>
<path d="M49.1677 40.8016H48.7858C48.9752 40.6427 49.1585 40.4777 49.3327 40.3005H49.6779C49.516 40.4747 49.3449 40.6427 49.1677 40.8016ZM39.4031 40.8016H39.0212C38.844 40.6427 38.6729 40.4747 38.511 40.3005H38.8562C39.0304 40.4747 39.2137 40.6427 39.4031 40.8016Z" fill="#B4B4B2"/>
<path d="M40.8116 40.8016H39.7117C39.5283 40.6427 39.3511 40.4747 39.1831 40.3005H40.5641C40.6405 40.4716 40.726 40.6366 40.8116 40.8016Z" fill="#A6A6A4"/>
<path d="M44.9912 40.8016H43.1947C42.6325 40.713 42.0948 40.5419 41.5968 40.3005H42.2384C42.8158 40.5083 43.4422 40.6213 44.0899 40.6213C44.7376 40.6213 45.3639 40.5083 45.9444 40.3005H46.586C46.088 40.5419 45.5533 40.713 44.9881 40.8016" fill="#B4B4B2"/>
<path d="M52.886 41.6693H35.3V40.8016H52.886V41.6693Z" fill="#DDDDDC"/>
<path d="M39.1037 51.1162H36.6075V49.5916L37.0567 49.2372H39.5528L39.1037 49.5916V51.1162ZM39.5528 47.8165H37.0567L36.6075 47.4621V45.7053L37.0567 45.3509H39.5528L39.1037 45.7053V47.4621L39.5528 47.8165ZM39.5528 43.2184H37.0567L36.6075 42.864V41.9565H39.1037V42.864L39.5528 43.2184Z" fill="#D5D5D2"/>
<path d="M39.5528 43.9331H37.0567L36.6137 43.5787H36.6075H39.1037H39.1098L39.5528 43.9331Z" fill="#C1C1BF"/>
<path d="M39.1037 43.5788H36.6075V43.5757L37.0567 43.2213H39.5528L39.1037 43.5757V43.5788Z" fill="#E8E8E6"/>
<path d="M39.5528 44.6421H37.0567L36.6075 44.2877H39.1037L39.5528 44.6421Z" fill="#C1C1BF"/>
<path d="M39.1037 44.2876H36.6075L37.0567 43.9332H39.5528L39.1037 44.2876Z" fill="#E8E8E6"/>
<path d="M39.5528 45.3539H37.0567L36.6075 44.9965H39.1037L39.5528 45.3539Z" fill="#C1C1BF"/>
<path d="M39.1037 44.9964H36.6075L37.0567 44.642H39.5528L39.1037 44.9964Z" fill="#E8E8E6"/>
<path d="M39.5528 48.5314H37.0567L36.6075 48.177H39.1037L39.5528 48.5314Z" fill="#C1C1BF"/>
<path d="M39.1037 48.1769H36.6075L37.0567 47.8195H39.5528L39.1037 48.1769Z" fill="#E8E8E6"/>
<path d="M39.5528 49.2403H37.0567L36.6075 48.8859H39.1037L39.5528 49.2403Z" fill="#C1C1BF"/>
<path d="M39.1037 48.8858H36.6075L37.0567 48.5314H39.5528L39.1037 48.8858Z" fill="#E8E8E6"/>
<path d="M38.7951 52.2741H36.302V51.4064H36.6075H39.1037H38.7951V52.2741Z" fill="#E8E8E6"/>
<path d="M39.1037 41.9594H36.6075V41.6692H36.299H38.7951H39.1037V41.9594Z" fill="#BBBBB9"/>
<path d="M39.1037 51.4063H36.6075V51.1161H39.1037V51.4063Z" fill="#BBBBB9"/>
<path d="M38.7951 41.6693H36.299V40.8016H38.7951V41.6693Z" fill="#E8E8E6"/>
<defs>
<filter id="filter0_d_542_6900" x="0" y="0" width="69" height="69" filterUnits="userSpaceOnUse" color-interpolation-filters="sRGB">
<feFlood flood-opacity="0" result="BackgroundImageFix"/>
<feColorMatrix in="SourceAlpha" type="matrix" values="0 0 0 0 0 0 0 0 0 0 0 0 0 0 0 0 0 0 127 0" result="hardAlpha"/>
<feOffset/>
<feGaussianBlur stdDeviation="2"/>
<feComposite in2="hardAlpha" operator="out"/>
<feColorMatrix type="matrix" values="0 0 0 0 0 0 0 0 0 0 0 0 0 0 0 0 0 0 0.25 0"/>
<feBlend mode="normal" in2="BackgroundImageFix" result="effect1_dropShadow_542_6900"/>
<feBlend mode="normal" in="SourceGraphic" in2="effect1_dropShadow_542_6900" result="shape"/>
</filter>
</defs>
</svg>
