<svg width="24" height="24" viewBox="0 0 24 24" fill="none" xmlns="http://www.w3.org/2000/svg">
<path d="M3.11257 12.5708C3.18399 12.7548 3.29108 12.9229 3.4277 13.0654L10.9308 20.5592C11.0707 20.699 11.2368 20.8098 11.4196 20.8854C11.6025 20.9611 11.7984 21 11.9963 21C12.3959 21 12.7791 20.8414 13.0617 20.5592C13.2016 20.4195 13.3126 20.2536 13.3883 20.071C13.464 19.8884 13.503 19.6927 13.503 19.4951C13.503 19.096 13.3443 18.7132 13.0617 18.431L8.10964 13.5L19.4994 13.5C19.8974 13.5 20.2791 13.3421 20.5605 13.0611C20.8419 12.78 21 12.3988 21 12.0013C21 11.6038 20.8419 11.2226 20.5605 10.9415C20.2791 10.6604 19.8974 10.5025 19.4994 10.5025L8.10964 10.5025L13.0617 5.57158C13.2024 5.43225 13.314 5.26648 13.3902 5.08385C13.4664 4.90121 13.5056 4.70531 13.5056 4.50745C13.5056 4.3096 13.4664 4.1137 13.3902 3.93107C13.314 3.74843 13.2024 3.58266 13.0617 3.44333C12.9222 3.30286 12.7562 3.19136 12.5734 3.11526C12.3905 3.03917 12.1944 3 11.9963 3C11.7982 3 11.602 3.03917 11.4192 3.11526C11.2363 3.19136 11.0703 3.30286 10.9308 3.44333L3.4277 10.9372C3.29108 11.0797 3.18399 11.2478 3.11257 11.4317C2.96248 11.7966 2.96248 12.2059 3.11257 12.5708Z" fill="#F9F9F9"/>
</svg>
