<svg width="53" height="51" viewBox="0 0 53 51" fill="none" xmlns="http://www.w3.org/2000/svg">
<path d="M48.9075 36.4786C48.9075 39.5916 47.6378 42.4153 45.5827 44.4525C43.5333 46.4954 40.6928 47.7575 37.5611 47.7575C31.2934 47.7575 26.2146 42.709 26.2146 36.4786C26.2146 33.3655 24.9449 30.5418 22.8898 28.5046C20.8405 26.4617 17.9999 25.1996 14.8682 25.1996C8.60046 25.1996 3.52173 20.1511 3.52173 13.9207C3.52173 10.8076 4.79141 7.98393 6.84654 5.94676C8.89591 3.90385 11.7365 2.64172 14.8682 2.64172C17.9999 2.64172 20.8405 3.90385 22.8898 5.94676C24.9449 7.98393 26.2146 10.8076 26.2146 13.9207C26.2146 20.1511 31.2934 25.1996 37.5611 25.1996C40.6928 25.1996 43.5333 26.4617 45.5827 28.5046C47.6378 30.5418 48.9075 33.3655 48.9075 36.4786Z" fill="#02595D"/>
<path d="M32.9378 19.2557C30.7241 17.0552 29.6129 14.1656 29.6173 11.2804C29.6129 8.39509 30.7241 5.50552 32.9378 3.30503C37.3694 -1.10025 44.5523 -1.10025 48.9839 3.30503C51.1976 5.50552 52.3087 8.39509 52.3044 11.2804C52.3087 14.1656 51.1976 17.0552 48.9839 19.2557C46.7702 21.4562 43.8634 22.5607 40.9608 22.5564C38.0583 22.5607 35.1514 21.4562 32.9378 19.2557Z" fill="#FAAF4C"/>
<path d="M3.61543 47.2633C1.40176 45.0628 0.290611 42.1732 0.294934 39.2879C0.290611 36.4026 1.40176 33.5131 3.61543 31.3126C8.04707 26.9073 15.2299 26.9073 19.6616 31.3126C21.8752 33.5131 22.9864 36.4026 22.9821 39.2879C22.9864 42.1732 21.8752 45.0628 19.6616 47.2633C17.4479 49.4637 14.5411 50.5683 11.6385 50.564C8.73596 50.5683 5.82909 49.4637 3.61543 47.2633Z" fill="#FAAF4C"/>
</svg>
