<svg width="21" height="20" viewBox="0 0 21 20" fill="none" xmlns="http://www.w3.org/2000/svg">
<path d="M15.2128 12.929C16.3928 11.2772 16.9213 9.22925 16.6926 7.19486C16.4639 5.16048 15.4948 3.2897 13.9793 1.9568C12.4638 0.6239 10.5135 -0.0728188 8.5188 0.00603073C6.52404 0.0848803 4.63187 0.933483 3.22082 2.38206C1.80978 3.83065 0.983928 5.77238 0.908494 7.81878C0.83306 9.86519 1.51361 11.8654 2.81398 13.4191C4.11435 14.9729 5.93865 15.9657 7.9219 16.1988C9.90515 16.432 11.9011 15.8884 13.5104 14.6767H13.5092C13.5457 14.7267 13.5847 14.7742 13.6286 14.8205L18.3202 19.6335C18.5487 19.868 18.8587 19.9999 19.182 20C19.5052 20.0001 19.8153 19.8685 20.044 19.6341C20.2726 19.3997 20.4011 19.0817 20.4013 18.7501C20.4014 18.4184 20.2731 18.1004 20.0446 17.8658L15.3529 13.0528C15.3094 13.0075 15.2625 12.9657 15.2128 12.9278V12.929ZM15.5272 8.12352C15.5272 9.02645 15.3538 9.92054 15.017 10.7547C14.6802 11.5889 14.1865 12.3469 13.5641 12.9854C12.9418 13.6239 12.2029 14.1303 11.3897 14.4759C10.5766 14.8214 9.70503 14.9992 8.82487 14.9992C7.9447 14.9992 7.07316 14.8214 6.25999 14.4759C5.44683 14.1303 4.70797 13.6239 4.0856 12.9854C3.46323 12.3469 2.96954 11.5889 2.63272 10.7547C2.29589 9.92054 2.12253 9.02645 2.12253 8.12352C2.12253 6.29997 2.82867 4.55111 4.0856 3.26166C5.34253 1.97222 7.0473 1.24781 8.82487 1.24781C10.6024 1.24781 12.3072 1.97222 13.5641 3.26166C14.8211 4.55111 15.5272 6.29997 15.5272 8.12352Z" fill="#015A5E"/>
</svg>
