<svg width="24" height="22" viewBox="0 0 24 22" fill="none" xmlns="http://www.w3.org/2000/svg">
<path d="M6.625 18.2812C7.8125 18.9062 8.9375 19.2188 10 19.2188C11.0625 19.2188 12.1719 18.9062 13.3281 18.2812C14.5156 17.6562 15.4062 16.8906 16 15.9844C15.9688 15.1094 15.2656 14.375 13.8906 13.7812C12.5156 13.1875 11.2188 12.8906 10 12.8906C8.78125 12.8906 7.48438 13.1875 6.10938 13.7812C4.73438 14.3438 4.03125 15.0781 4 15.9844C4.59375 16.8906 5.46875 17.6562 6.625 18.2812ZM12.1094 5.90625C11.5156 5.3125 10.8125 5.01562 10 5.01562C9.1875 5.01562 8.48438 5.3125 7.89062 5.90625C7.29688 6.5 7 7.20313 7 8.01562C7 8.82812 7.29688 9.53125 7.89062 10.125C8.48438 10.7188 9.1875 11.0156 10 11.0156C10.8125 11.0156 11.5156 10.7188 12.1094 10.125C12.7031 9.53125 13 8.82812 13 8.01562C13 7.20313 12.7031 6.5 12.1094 5.90625ZM2.92188 4.96875C4.89062 3 7.25 2.01562 10 2.01562C12.75 2.01562 15.0938 3 17.0312 4.96875C19 6.90625 19.9844 9.25 19.9844 12C19.9844 14.75 19 17.1094 17.0312 19.0781C15.0938 21.0156 12.75 21.9844 10 21.9844C7.25 21.9844 4.89062 21.0156 2.92188 19.0781C0.984375 17.1094 0.015625 14.75 0.015625 12C0.015625 9.25 0.984375 6.90625 2.92188 4.96875Z" fill="#757575"/>
</svg>
